<svg width="243" height="238" xmlns="http://www.w3.org/2000/svg" xmlns:xlink="http://www.w3.org/1999/xlink" xml:space="preserve" overflow="hidden"><defs><clipPath id="clip0"><rect x="1307" y="11" width="243" height="238"/></clipPath><clipPath id="clip1"><rect x="1307" y="190" width="243" height="59"/></clipPath><clipPath id="clip2"><rect x="1307" y="190" width="243" height="59"/></clipPath></defs><g clip-path="url(#clip0)" transform="translate(-1307 -11)"><path d="M1504 66.9542C1499.97 68.6445 1496.31 70.1653 1492.69 71.7686 1483.19 75.9783 1476.77 83.0738 1472.75 92.5651 1471.34 95.8999 1469.87 99.2118 1468.57 103 1465.1 94.5761 1462.33 86.1658 1456.02 79.7391 1449.7 73.3031 1441.39 70.3943 1433 66.9634 1441.41 63.6194 1449.7 60.6557 1456 54.2335 1462.3 47.8022 1465.25 39.4744 1468.47 31 1469.69 34.0095 1470.76 36.7672 1471.92 39.4881 1474.57 45.663 1477.68 51.5309 1482.89 55.9925 1487.14 59.6342 1492.1 62.0345 1497.17 64.2195 1499.3 65.1357 1501.47 65.9464 1504 66.9496Z" fill="#FEB501" fill-rule="evenodd"/><path d="M1416.72 43.9388C1404.41 43.9388 1392.09 43.9388 1379.78 43.9255 1379.2 43.9255 1378.38 44.2431 1378.08 43.5675 1377.74 42.8383 1378.61 42.5564 1379.01 42.1717 1381.47 39.8542 1384.12 37.7604 1386.87 35.7785 1387.64 35.2192 1388.44 35 1389.4 35 1412.77 35.0134 1436.14 35.0089 1459.52 35.0134 1461.32 35.0134 1461.32 35.0268 1460.38 36.6016 1459.15 38.6731 1457.75 40.6327 1456.31 42.5698 1455.58 43.5586 1454.77 43.9701 1453.48 43.9657 1441.22 43.912 1428.97 43.9344 1416.72 43.9344Z" fill="#2F5597" fill-rule="evenodd"/><path d="M1374 155.035 1376.07 155.035C1398.24 155.035 1420.41 155.05 1442.58 155 1443.93 155 1444.76 155.396 1445.44 156.695 1446.88 159.405 1448.47 162.017 1450 164.678 1449.37 165.144 1448.84 164.965 1448.36 164.965 1427.39 164.975 1406.41 164.965 1385.44 165 1384.09 165 1383.08 164.569 1382.07 163.613 1379.33 161.016 1376.67 158.35 1374 155.035Z" fill="#5B9AD4" fill-rule="evenodd"/><path d="M1438 145.964 1436.03 145.964C1413.52 145.964 1391.01 145.95 1368.5 146 1367.12 146 1366.31 145.584 1365.69 144.407 1364.63 142.415 1363.52 140.45 1362.38 138.504 1361.72 137.386 1361.86 136.974 1363.26 137.001 1367.05 137.065 1370.84 137.024 1374.63 137.024 1387.58 137.024 1400.53 137.033 1413.49 137.01 1414.71 137.01 1415.81 137.241 1416.9 137.793 1422.08 140.419 1427.61 141.704 1433.39 141.799 1435.01 141.827 1436.05 142.261 1436.69 143.741 1436.97 144.402 1437.42 144.995 1438 145.964Z" fill="#5B9AD4" fill-rule="evenodd"/><path d="M1441 146 1502 146C1501.74 147.136 1500.93 147.888 1500.34 148.733 1498.64 151.119 1497.22 154.055 1494.74 155.384 1492.55 156.557 1489.57 155.694 1486.94 155.698 1474.21 155.726 1461.48 155.689 1448.75 155.744 1447.42 155.749 1446.68 155.333 1446.02 154.198 1444.48 151.516 1442.8 148.908 1441 146Z" fill="#2F5597" fill-rule="evenodd"/><path d="M1444 54.2782C1442.23 55.5773 1440.3 56.5359 1438.38 57.4408 1434.27 59.376 1430.23 61.4993 1425.74 62.552 1424.5 62.8432 1423.27 62.9776 1422 62.9776 1411.63 62.9641 1401.26 62.9507 1390.89 63 1389.69 63.0044 1389.03 62.6237 1388.44 61.6426 1387.12 59.4208 1385.7 57.2572 1384.3 55.089 1383.8 54.332 1383.89 53.9736 1384.87 54.0318 1385.1 54.0453 1385.33 54.0318 1385.56 54.0318 1404.58 54.0318 1423.6 54.0318 1442.62 54.0408 1443.04 54.0408 1443.51 53.8571 1444 54.2693Z" fill="#2F5597" fill-rule="evenodd"/><path d="M1454 135.754C1455.47 134.757 1456.95 133.844 1458.33 132.802 1459.77 131.701 1461.34 130.65 1462.46 129.273 1463.94 127.439 1465.64 126.987 1467.96 127 1481.73 127.099 1495.5 127.049 1509.27 127.049 1511.25 127.049 1511.29 127.072 1510.58 128.852 1509.75 130.923 1508.81 132.958 1507.95 135.02 1507.69 135.651 1507.36 136 1506.57 136 1489.17 135.978 1471.77 135.978 1454.36 135.964 1454.28 135.964 1454.19 135.87 1454 135.758Z" fill="#2F5597" fill-rule="evenodd"/><path d="M1404 126.968C1403.06 126.968 1402.56 126.968 1402.07 126.968 1387.71 126.968 1373.35 126.95 1359 127 1357.67 127 1357.02 126.642 1356.74 125.355 1356.28 123.32 1355.7 121.313 1355.12 119.31 1354.86 118.408 1354.94 118 1356.07 118 1369.74 118.027 1383.4 118.018 1397.07 118.014 1397.74 118.014 1398.3 118.072 1398.63 118.775 1399.95 121.603 1401.74 124.159 1404 126.968Z" fill="#5B9BD4" fill-rule="evenodd"/><path d="M1471 117.821C1471.89 115.202 1472.8 112.628 1473.62 110.031 1473.88 109.242 1474.29 109 1475.11 109.005 1488 109.022 1500.9 109.027 1513.8 109 1514.81 109 1515.13 109.274 1514.96 110.247 1514.58 112.39 1514.29 114.547 1513.96 116.7 1513.84 117.457 1513.67 118 1512.6 118 1498.9 117.96 1485.2 117.969 1471.5 117.96 1471.34 117.96 1471.19 117.879 1471 117.825Z" fill="#2F5597" fill-rule="evenodd"/><path d="M1399.04 174.047C1400.33 174.047 1401.61 174.047 1402.9 174.047 1419.53 174.047 1436.16 174.085 1452.79 174 1454.84 173.992 1456.09 174.471 1457.08 176.208 1458.4 178.517 1458.55 178.483 1455.87 179.167 1436.58 184.1 1417.86 182.58 1399.72 174.696 1399.47 174.586 1399.24 174.446 1399 174.318 1399.01 174.229 1399.02 174.14 1399.04 174.051Z" fill="#5B9AD4" fill-rule="evenodd"/><path d="M1376.52 81.0229C1382.89 81.0229 1389.26 81.0183 1395.63 81.0229 1397.98 81.0229 1398.51 81.9346 1397.55 84.0712 1396.83 85.6634 1396.19 87.2964 1395.63 88.9476 1395.36 89.7188 1395 89.9955 1394.19 89.9955 1381.17 89.9728 1368.14 89.9682 1355.12 90 1354.09 90 1353.87 89.6689 1354.07 88.7344 1354.5 86.6387 1354.94 84.543 1355.28 82.4291 1355.46 81.3086 1355.97 80.9911 1357.08 81.0002 1363.56 81.0501 1370.05 81.0229 1376.53 81.0229Z" fill="#5B9AD4" fill-rule="evenodd"/><path d="M1374.27 108.963C1367.89 108.963 1361.52 108.94 1355.14 108.985 1353.94 108.994 1353.33 108.845 1353.24 107.409 1353.11 105.494 1353.17 103.578 1353.01 101.671 1352.9 100.285 1353.48 99.9955 1354.78 100 1365.86 100.045 1376.94 100.027 1388.03 100.027 1389.75 100.027 1391.47 100.068 1393.19 100.014 1394.17 99.982 1394.45 100.331 1394.47 101.282 1394.5 103.193 1394.48 105.149 1394.88 107.002 1395.29 108.845 1394.64 109.017 1393.04 108.999 1386.78 108.922 1380.52 108.967 1374.26 108.967Z" fill="#5B9AD4" fill-rule="evenodd"/><path d="M1478 99.98C1479.4 96.6251 1480.94 93.6695 1482.58 90.7739 1482.98 90.0749 1483.54 90.015 1484.2 90.015 1493.78 90.025 1503.37 90.0349 1512.95 90 1513.94 90 1514.36 90.2746 1514.41 91.4328 1514.53 93.8492 1514.76 96.2606 1514.98 98.672 1515.07 99.5956 1514.84 100 1513.89 100 1502.03 99.9701 1490.16 99.98 1478 99.98Z" fill="#2F5596" fill-rule="evenodd"/><path d="M1392 71.9816C1386.29 71.9816 1380.95 71.9816 1375.61 71.9816 1370.44 71.9816 1365.27 71.9634 1360.1 71.9998 1359.05 72.0089 1358.74 71.7405 1359.22 70.7531 1360.33 68.4554 1361.44 66.1485 1362.51 63.8281 1362.83 63.1411 1363.34 63 1364.03 63 1371.09 63.0137 1378.16 63.0137 1385.22 63 1385.9 63 1386.42 63.132 1386.81 63.7599 1388.45 66.4079 1390.14 69.0378 1392 71.9816Z" fill="#5B9AD4" fill-rule="evenodd"/><path d="M1485 165.009C1480.52 168.531 1476.06 171.365 1471.27 173.713 1470.48 174.108 1469.58 173.981 1468.73 173.981 1465.79 173.981 1462.86 173.981 1459.93 173.981 1459.28 173.981 1458.67 174.003 1458.27 173.35 1456.56 170.621 1454.84 167.906 1453 165L1485 165Z" fill="#2F5596" fill-rule="evenodd"/><path d="M1407 26C1425.31 19.3287 1443.65 19.3379 1462 26L1407 26Z" fill="#2F5597" fill-rule="evenodd"/><path d="M1491 80.9955C1494.86 77.6016 1498.9 75.2866 1503.03 73.075 1504.66 72.2029 1506.31 71.9602 1508.1 72.0051 1508.91 72.0276 1509.36 72.2793 1509.6 73.0345 1510.35 75.381 1511.12 77.7141 1511.9 80.0516 1512.1 80.6494 1512.05 81.0001 1511.28 81.0001 1504.66 80.9866 1498.04 80.9911 1491 80.9911Z" fill="#2F5597" fill-rule="evenodd"/><path d="M1505.78 23.9956C1504.67 20.7052 1502.58 18.6252 1499 17.5403 1502.59 16.469 1504.7 14.4293 1505.72 11 1506.84 14.1693 1508.64 16.5362 1512 17.4597 1509.01 18.7418 1506.74 20.6245 1505.78 24Z" fill="#FEB602" fill-rule="evenodd"/><path d="M1493 26.6897C1489.68 27.7847 1487.52 29.7746 1486.57 33.0001 1485.48 29.8086 1483.39 27.7165 1480 26.711 1483.36 25.6841 1485.47 23.6303 1486.54 20 1487.6 23.592 1489.67 25.667 1493 26.6939Z" fill="#FEB602" fill-rule="evenodd"/><path d="M1495 43.1825C1498.41 42.0785 1500.4 39.7876 1501.48 36 1502.6 39.7552 1504.54 42.1155 1508 43.1455 1504.68 44.3095 1502.47 46.4573 1501.53 50 1500.4 46.5774 1498.42 44.2078 1495 43.1825Z" fill="#FEB602" fill-rule="evenodd"/><path d="M1400.13 80C1398.35 77.2208 1396.74 74.7098 1395 72L1407 72C1404.38 74.4971 1402.21 77.022 1400.13 80Z" fill="#315798" fill-rule="evenodd"/><path d="M1380 53 1369 53C1370.8 50.4565 1372.76 48.3041 1374.82 46.2218 1375.24 45.7957 1375.48 46.0505 1375.72 46.4239 1377.09 48.5457 1378.47 50.6586 1380 53Z" fill="#5B9BD5" fill-rule="evenodd"/><g clip-path="url(#clip1)"><g clip-path="url(#clip2)"><g><path d="M138.71 14.0679C141.281 14.0627 143.852 14.0004 146.409 14.3828 149.088 14.7825 150.558 16.2427 150.96 18.9141 151.313 21.2584 150.923 23.4678 149.707 25.5094 149.43 25.9766 149.366 26.371 149.742 26.7949 149.856 26.923 149.932 27.0821 150.041 27.2171 152.14 29.8106 152.32 32.7259 151.389 35.7727 150.593 38.3783 148.733 39.7365 146.034 40.0462 142.561 40.4424 139.084 40.2763 135.606 40.2313 134.698 40.2192 133.791 40.1846 132.885 40.1379 131.802 40.0825 131.404 39.6794 131.404 38.605 131.398 30.9041 131.398 23.2031 131.404 15.5022 131.404 14.6198 131.722 14.3032 132.62 14.2686 134.649 14.1925 136.681 14.1336 138.712 14.0696Z" fill="#1F4E79" transform="matrix(1.00218 0 0 1 1242.22 190.033)"/><path d="M92.6758 26.5354C92.6533 29.3729 92.4128 31.9093 91.5582 34.3696 90.4924 37.4354 88.4266 39.3645 85.2483 40.0635 82.0838 40.7608 78.9038 40.8075 75.7428 40.0687 72.3032 39.2642 70.3205 36.9458 69.5609 33.6308 68.5799 29.3469 68.5402 25.0302 69.798 20.7774 70.4727 18.4936 71.6095 16.4919 73.7964 15.2704 74.9608 14.6216 76.2134 14.2253 77.5197 14.0264 80.2118 13.6129 82.9022 13.6457 85.5787 14.1734 89.084 14.8655 91.0564 17.0991 91.9578 20.4522 92.5184 22.537 92.6187 24.6599 92.6758 26.5337Z" fill="#1F4E79" transform="matrix(1.00218 0 0 1 1242.22 190.033)"/><path d="M291.609 28.9455C291.609 31.9646 291.613 34.982 291.609 38.0012 291.606 40.0185 291.402 40.2106 289.384 40.1552 287.794 40.1119 287.19 39.5514 287.144 37.9562 287.088 36.0824 287.092 34.2052 287.068 32.3297 287.054 31.2691 286.929 31.1411 285.867 31.1394 283.036 31.1359 280.206 31.1601 277.377 31.1272 276.315 31.1151 275.581 31.4992 275.055 32.4318 273.975 34.3453 272.823 36.2174 271.737 38.1275 270.633 40.0687 269.19 40.2746 267.148 40.1223 266.638 40.0843 266.37 39.6967 266.365 39.1725 266.361 38.8143 266.506 38.5012 266.683 38.2019 270.335 32.0269 273.986 25.8485 277.647 19.6788 278.13 18.8639 278.681 18.0905 279.199 17.2964 280.614 15.1302 282.633 14.0281 285.206 13.9191 286.329 13.8707 287.45 13.8603 288.557 14.1163 290.158 14.4866 291.016 15.3828 291.289 16.9971 291.466 18.0403 291.561 19.0905 291.563 20.1494 291.566 23.082 291.563 26.0146 291.563 28.9455 291.578 28.9455 291.594 28.9455 291.611 28.9455Z" fill="#1F4E79" transform="matrix(1.00218 0 0 1 1242.22 190.033)"/><path d="M179.601 25.7465C179.601 21.4107 179.601 17.0749 179.601 12.7391 179.601 11.5661 179.739 11.4277 180.893 11.426 181.563 11.426 182.234 11.4242 182.904 11.426 183.85 11.4294 184.056 11.618 184.058 12.5523 184.064 14.8171 184.059 17.0818 184.059 19.3483 184.059 20.2082 184.059 20.2013 184.936 20.0767 187.443 19.7186 189.959 19.4746 192.494 19.7169 194.21 19.8812 195.816 20.3241 196.913 21.8086 197.579 22.71 197.797 23.7602 197.907 24.8399 198.02 25.935 198.044 27.0337 198.041 28.1358 198.032 31.7172 198.039 35.2969 198.037 38.8783 198.037 39.9459 197.816 40.1639 196.745 40.1656 196.053 40.1656 195.361 40.169 194.67 40.1552 194.044 40.1431 193.651 39.8317 193.563 39.2002 193.521 38.9026 193.506 38.5998 193.506 38.2987 193.502 34.8263 193.506 31.3522 193.502 27.8797 193.502 27.0579 193.418 26.2447 193.226 25.4437 193.021 24.5873 192.504 24.0613 191.636 23.8467 190.141 23.4765 188.629 23.5751 187.12 23.6391 186.388 23.6703 185.66 23.7914 184.928 23.8554 184.353 23.9056 184.071 24.2049 184.064 24.7741 184.061 25.0111 184.056 25.2482 184.056 25.4852 184.056 29.9507 184.056 34.4163 184.056 38.8818 184.056 40.0324 183.916 40.1673 182.741 40.169 182.092 40.169 181.443 40.1708 180.796 40.169 179.782 40.1656 179.599 39.9856 179.599 38.9527 179.595 34.5512 179.599 30.1514 179.599 25.7499Z" fill="#1F4E79" transform="matrix(1.00218 0 0 1 1242.22 190.033)"/><path d="M167.247 31.4664C165.259 31.4664 163.27 31.4837 161.282 31.456 160.692 31.4473 160.5 31.6549 160.604 32.2155 160.685 32.6602 160.714 33.1135 160.797 33.5564 161.065 35.0097 161.934 35.8575 163.391 36.162 165.32 36.5634 167.263 36.4682 169.202 36.354 170.386 36.2848 171.566 36.1291 172.734 35.9025 173.592 35.7364 174.094 36.2693 173.844 37.1188 173.438 38.5064 172.722 39.6344 171.149 39.9476 168.064 40.5601 164.972 40.6085 161.879 40.0324 158.751 39.4493 156.963 37.5409 156.382 34.4474 155.79 31.2899 155.754 28.1479 156.664 25.0388 157.529 22.082 159.481 20.3345 162.536 19.8172 164.969 19.4054 167.386 19.3881 169.808 19.9193 172.095 20.4193 173.467 21.8225 174.05 24.044 174.564 25.9973 174.748 27.9905 174.677 30.0044 174.637 31.1203 174.26 31.4577 173.145 31.4629 171.178 31.4715 169.211 31.4646 167.244 31.4646Z" fill="#1F4E79" transform="matrix(1.00218 0 0 1 1242.22 190.033)"/><path d="M220.661 32.3712C220.661 34.4837 220.664 36.5963 220.659 38.7105 220.657 39.6413 220.514 39.7919 219.607 39.9113 216.152 40.3697 212.686 40.5843 209.204 40.2902 208.105 40.1967 207.022 40.0358 205.972 39.6742 204.833 39.2815 204.029 38.5306 203.645 37.4129 202.861 35.136 202.908 32.8453 203.707 30.5736 204.036 29.641 204.69 29.1133 205.669 28.904 207.768 28.4559 209.899 28.3106 212.029 28.1358 213.256 28.0355 214.484 27.9576 215.712 27.8953 216.145 27.8728 216.344 27.7119 216.32 27.2655 216.285 26.6409 216.263 26.0164 216.128 25.4039 215.899 24.371 215.389 23.8623 214.349 23.7204 212.306 23.4419 210.254 23.5094 208.205 23.6616 207.195 23.736 206.191 23.9073 205.183 24.0094 204.366 24.0924 203.965 23.6703 204.169 22.89 204.546 21.4453 205.34 20.2895 206.89 19.9972 210.121 19.3881 213.38 19.3241 216.614 19.9366 218.837 20.357 219.989 21.691 220.354 23.9194 220.574 25.2637 220.656 26.6167 220.661 27.9766 220.666 29.4421 220.661 30.9092 220.661 32.3747Z" fill="#1F4E79" transform="matrix(1.00218 0 0 1 1242.22 190.033)"/><path d="M97.9597 30.1982C97.9597 27.3088 97.9597 24.4177 97.9597 21.5283 97.9597 20.4678 98.093 20.2982 99.1518 20.1771 102.91 19.7445 106.673 19.3587 110.462 19.7134 112.047 19.8622 113.599 20.1511 114.805 21.3173 116.074 22.5439 116.27 24.1772 116.312 25.7966 116.386 28.7275 116.351 31.6619 116.358 34.5962 116.362 36.1274 116.365 37.6586 116.355 39.1898 116.35 39.9372 116.132 40.15 115.389 40.1604 114.633 40.169 113.875 40.1742 113.119 40.1569 112.344 40.1379 112.021 39.8386 111.938 39.0756 111.903 38.7555 111.903 38.4302 111.9 38.1067 111.858 34.354 112.007 30.5995 111.82 26.8503 111.695 24.352 111.062 23.7585 108.548 23.5544 106.861 23.4177 105.178 23.5076 103.496 23.6236 102.543 23.6893 102.462 23.8 102.46 24.8502 102.455 29.5096 102.458 34.1671 102.456 38.8264 102.456 40.0116 102.304 40.1604 101.114 40.1621 100.465 40.1621 99.8179 40.1656 99.1691 40.1621 98.1777 40.1569 97.9632 39.9476 97.9615 38.9354 97.9563 36.5634 97.9597 34.1896 97.9597 31.8176 97.9597 31.2778 97.9597 30.7397 97.9597 30.1999Z" fill="#1F4E79" transform="matrix(1.00218 0 0 1 1242.22 190.033)"/><path d="M242.812 31.7899C242.812 34.1827 242.815 36.5772 242.812 38.97 242.812 39.9441 242.601 40.1535 241.642 40.1587 240.907 40.1639 240.173 40.1639 239.438 40.1587 238.531 40.1535 238.35 39.9753 238.336 39.0514 238.326 38.361 238.334 37.6707 238.334 36.9821 238.334 33.0356 238.336 29.0909 238.334 25.1444 238.334 23.6184 238.315 23.6045 236.782 23.6045 236.459 23.6045 236.133 23.6114 235.81 23.6028 235.088 23.5838 234.798 23.2775 234.834 22.5509 234.876 21.7273 235.215 21.011 235.682 20.3518 235.926 20.0075 236.301 19.8968 236.699 19.8657 237 19.8414 237.307 19.8189 237.606 19.8501 238.14 19.9055 238.339 19.6823 238.345 19.158 238.352 18.2964 238.384 17.4382 238.507 16.5801 238.9 13.8309 240.36 12.2564 243.104 11.701 245.264 11.265 247.437 11.2356 249.613 11.5574 251.096 11.7772 251.99 12.7564 252.129 14.2548 252.205 15.0818 251.888 15.4174 251.051 15.3655 249.563 15.2721 248.077 15.1319 246.585 15.2046 245.983 15.234 245.374 15.2756 244.784 15.388 243.609 15.6129 243.111 16.1424 242.945 17.3241 242.862 17.9192 242.864 18.5265 242.815 19.1286 242.772 19.6615 243.016 19.8501 243.54 19.8466 245.852 19.8328 248.163 19.8414 250.475 19.8449 251.669 19.8449 251.978 20.2826 251.596 21.4193 251.042 23.0664 250.321 23.5959 248.592 23.6045 247.014 23.6114 245.438 23.6045 243.86 23.608 242.867 23.608 242.817 23.6616 242.817 24.6772 242.815 27.0493 242.817 29.4213 242.817 31.7916Z" fill="#1F4E79" transform="matrix(1.00218 0 0 1 1242.22 190.033)"/><path d="M39.5721 7.05558C40.7296 9.96743 41.7193 12.8239 43.8941 15.0126 46.0464 17.1787 48.8648 18.2012 51.7576 19.3276 48.889 20.537 46.0152 21.492 43.8664 23.6945 41.7279 25.8866 40.7262 28.7085 39.5929 31.5875 38.4077 28.769 37.47 25.9022 35.3142 23.7135 33.1411 21.5093 30.2933 20.5093 27.3953 19.3397 30.2587 18.1961 33.1117 17.1943 35.2727 15.0091 37.4371 12.8205 38.4545 9.983 39.5739 7.05558Z" fill="#FEB501" transform="matrix(1.00218 0 0 1 1242.22 190.033)"/><path d="M231.159 25.833C231.159 30.167 231.159 34.5028 231.159 38.8368 231.159 40.0341 231.026 40.169 229.813 40.1604 229.209 40.1569 228.604 40.2123 228.005 40.0704 227.159 39.8697 226.794 39.4683 226.718 38.6015 226.694 38.323 226.699 38.041 226.699 37.7607 226.699 29.4576 226.699 21.1546 226.699 12.8516 226.699 11.6388 226.829 11.5073 228.019 11.5038 228.711 11.5038 229.401 11.4986 230.094 11.5038 230.985 11.5107 231.152 11.663 231.156 12.5679 231.166 15.3707 231.159 18.1753 231.159 20.9781 231.159 22.5958 231.159 24.2135 231.159 25.8312Z" fill="#1F4E79" transform="matrix(1.00218 0 0 1 1242.22 190.033)"/><path d="M297.398 40.1639C297.075 40.1639 296.75 40.1708 296.426 40.1639 295.663 40.1431 295.416 39.8196 295.627 39.0773 296.163 37.1724 296.717 35.271 297.26 33.3678 298.94 27.4922 300.616 21.6166 302.298 15.741 302.675 14.4226 303.16 14.0593 304.516 14.0541 305.056 14.0523 305.596 14.0489 306.136 14.0541 307.042 14.0662 307.264 14.3482 307.013 15.2219 306.037 18.6355 305.053 22.0457 304.068 25.4575 302.883 29.5718 301.693 33.6844 300.511 37.8005 299.855 40.0825 299.758 40.1639 297.397 40.1639Z" fill="#1F4E79" transform="matrix(1.00218 0 0 1 1242.22 190.033)"/><path d="M37.0565 8.42413C36.4717 9.53835 35.8315 10.4467 35.1274 11.3152 34.9526 11.5298 34.7346 11.5436 34.4907 11.5436 25.9818 11.5419 17.4746 11.5436 8.96567 11.5401 8.79958 11.5401 8.58331 11.6076 8.48988 11.426 8.36531 11.1855 8.64559 11.1163 8.74767 10.9709 8.78401 10.919 8.83937 10.8792 8.88608 10.836 10.5805 9.22923 12.588 8.42586 14.9088 8.42586L37.0582 8.42586Z" fill="#2F5596" transform="matrix(1.00218 0 0 1 1242.22 190.033)"/><path d="M7.07807 49.633C7.44486 49.633 7.63691 49.633 7.82896 49.633 15.3932 49.633 22.9574 49.6382 30.5217 49.6226 31.0338 49.6226 31.3539 49.7437 31.6065 50.2161 31.9698 50.8995 32.4231 51.5362 32.828 52.1988 32.9145 52.339 33.1117 52.4791 33.02 52.6487 32.9128 52.8476 32.6723 52.7317 32.4906 52.7525 32.3626 52.7663 32.2311 52.7559 32.1013 52.7559 25.0769 52.7559 18.0542 52.7525 11.0297 52.7646 10.5194 52.7646 10.1301 52.6296 9.75116 52.2836 8.86359 51.4722 7.96391 50.6763 7.07634 49.6347Z" fill="#5B9BD4" transform="matrix(1.00218 0 0 1 1242.22 190.033)"/><path d="M2.74576 43.1518 8.87743 43.1518C12.6596 43.1518 16.4417 43.157 20.2238 43.1449 20.6892 43.1449 21.1166 43.2072 21.5318 43.4217 23.5267 44.4529 25.6582 44.9114 27.8953 44.9529 28.6929 44.9668 28.6427 45.7575 29.1549 46.2678 28.7569 46.2678 28.5476 46.2678 28.3382 46.2678 20.6217 46.2678 12.907 46.2609 5.19047 46.2817 4.64028 46.2817 4.32539 46.1104 4.0676 45.6398 3.63506 44.8491 3.15927 44.0809 2.74403 43.1518Z" fill="#5B9AD4" transform="matrix(1.00218 0 0 1 1242.22 190.033)"/><path d="M51.0777 46.3699C50.3649 47.5136 49.5724 48.498 48.7472 49.4583 48.5984 49.6295 48.4046 49.6105 48.2125 49.6105 43.01 49.6105 37.8091 49.6105 32.6065 49.6105 32.4179 49.6105 32.2121 49.6538 32.084 49.4479 31.4629 48.4478 30.84 47.4478 30.1705 46.3717L51.0794 46.3717Z" fill="#2F5596" transform="matrix(1.00218 0 0 1 1242.22 190.033)"/><path d="M34.918 43.1311C36.1309 42.2487 37.2641 41.33 38.2243 40.214 38.4077 40.0012 38.6361 40.0133 38.8732 40.0133 43.7955 40.0133 48.7177 40.0185 53.64 40.0047 54.1141 40.0047 54.1972 40.1275 54.0155 40.5428 53.6989 41.2729 53.3978 42.0099 53.1089 42.7504 52.9999 43.0307 52.8407 43.1363 52.531 43.1363 46.6606 43.1276 40.7884 43.1293 34.918 43.1293Z" fill="#2F5596" transform="matrix(1.00218 0 0 1 1242.22 190.033)"/><path d="M30.8608 14.7357C29.5909 15.7012 28.1704 16.3119 26.7724 16.9711 25.3987 17.6182 23.9921 17.9175 22.4574 17.8829 19.3258 17.8154 16.1908 17.8535 13.0575 17.8725 12.6163 17.8742 12.3447 17.7549 12.1249 17.3604 11.7374 16.6631 11.2875 16.0022 10.8723 15.3188 10.7771 15.1614 10.5557 14.997 10.6768 14.8119 10.7858 14.6458 11.0384 14.7375 11.2253 14.7357 14.7254 14.7323 18.2272 14.7323 21.7273 14.7323 24.5578 14.7323 27.3884 14.7323 30.2206 14.7323L30.8625 14.7323Z" fill="#2F5597" transform="matrix(1.00218 0 0 1 1242.22 190.033)"/><path d="M17.1995 39.996 16.4676 39.996C11.6976 39.996 6.92755 39.9874 2.15924 40.0081 1.61078 40.0099 1.32357 39.8576 1.20765 39.3143 1.06232 38.643 0.865078 37.9821 0.683412 37.3177 0.583063 36.951 0.698983 36.8195 1.08827 36.8195 5.66453 36.8281 10.2391 36.8264 14.8153 36.8246 15.042 36.8246 15.2531 36.8454 15.3603 37.0824 15.8136 38.0877 16.4451 38.9856 17.2012 39.9978Z" fill="#5B9BD4" transform="matrix(1.00218 0 0 1 1242.22 190.033)"/><path d="M15.5818 55.9619 22.1823 55.9619C26.1375 55.9619 30.0926 55.9913 34.0477 55.9394 34.9163 55.9273 35.444 56.1591 35.8333 56.9395 36.1949 57.6661 36.2572 57.6471 35.4699 57.8634 28.7742 59.6973 22.2688 59.1817 15.959 56.282 15.824 56.2197 15.6977 56.1418 15.5662 56.0709L15.5835 55.9619Z" fill="#5B9AD4" transform="matrix(1.00218 0 0 1 1242.22 190.033)"/><path d="M8.14039 24.2274C10.3429 24.2274 12.5471 24.2257 14.7496 24.2274 15.5333 24.2274 15.7081 24.5232 15.3794 25.2343 15.2167 25.5856 15.0506 25.9385 14.9157 26.3001 14.5316 27.3382 14.5368 27.3399 13.4572 27.3399 9.28921 27.3399 5.12126 27.333 0.951586 27.3486 0.43946 27.3503 0.185127 27.3036 0.363333 26.6929 0.543269 26.0769 0.655729 25.435 0.740507 24.7966 0.802793 24.326 1.01733 24.2118 1.46717 24.2153 3.69215 24.236 5.9154 24.2257 8.14039 24.2257Z" fill="#5B9AD4" transform="matrix(1.00218 0 0 1 1242.22 190.033)"/><path d="M47.7402 36.8022C45.4927 36.8022 43.247 36.7918 40.9995 36.8108 40.5514 36.8143 40.4528 36.7364 40.6258 36.2883 40.8957 35.5859 41.1051 34.8592 41.304 34.1325 41.3905 33.8124 41.5168 33.681 41.8698 33.681 46.2765 33.6931 50.6849 33.6931 55.0916 33.681 55.4411 33.681 55.5553 33.7882 55.4965 34.1273 55.3737 34.8488 55.2352 35.5703 55.166 36.297 55.1245 36.7295 54.9377 36.8108 54.5466 36.8074 52.2784 36.7918 50.0102 36.7987 47.7419 36.7987Z" fill="#2F5596" transform="matrix(1.00218 0 0 1 1242.22 190.033)"/><path d="M7.1369 33.6706C4.99669 33.6706 2.85649 33.6585 0.718015 33.6792 0.290666 33.6827 0.119381 33.5841 0.0743967 33.129 0.00519047 32.4179 0.0346031 31.7068 0.00173016 30.9975-0.0138413 30.6636 0.11419 30.5338 0.451571 30.5459 0.948126 30.5649 1.44641 30.5511 1.94297 30.5511 5.68183 30.5511 9.4207 30.5632 13.1613 30.539 13.7876 30.5355 14.1094 30.6203 14.0368 31.3574 13.9831 31.9058 14.042 32.4871 14.1683 33.027 14.3119 33.6412 14.0662 33.6861 13.5592 33.681 11.419 33.6567 9.28056 33.6706 7.14036 33.6706Z" fill="#5B9AD4" transform="matrix(1.00218 0 0 1 1242.22 190.033)"/><path d="M49.2766 30.4732C47.3336 30.4732 45.3907 30.4594 43.4477 30.4819 42.9252 30.4888 42.8491 30.3573 43.1051 29.9196 43.5186 29.2137 43.9114 28.4957 44.2989 27.7759 44.4564 27.4818 44.6519 27.3469 45.01 27.3486 48.3129 27.3624 51.6158 27.3624 54.9186 27.3486 55.2785 27.3486 55.41 27.461 55.4325 27.8088 55.4792 28.5164 55.5449 29.2241 55.6263 29.93 55.6747 30.3469 55.5415 30.4871 55.1038 30.4819 53.1608 30.4594 51.2178 30.4715 49.2749 30.4715Z" fill="#2F5596" transform="matrix(1.00218 0 0 1 1242.22 190.033)"/><path d="M13.2651 21.0058C9.97089 21.0058 6.82547 21.0058 3.67831 21.0058 3.22501 21.0058 2.77171 20.9937 2.32014 21.0093 1.99314 21.0214 1.95162 20.8934 2.07792 20.6287 2.46547 19.8138 2.85476 18.9971 3.23193 18.177 3.34093 17.94 3.51914 17.895 3.75444 17.895 6.14898 17.9002 8.54178 17.8985 10.9363 17.895 11.1682 17.895 11.3516 17.9469 11.483 18.158 12.0488 19.0681 12.6198 19.9747 13.2668 21.0041Z" fill="#5B9AD4" transform="matrix(1.00218 0 0 1 1242.22 190.033)"/><path d="M72.234 55.4671C72.4347 53.8425 72.6199 52.2161 72.8396 50.595 72.9624 49.6953 73.1804 49.5119 73.9659 49.4807 74.9677 49.441 75.1684 49.5759 75.3725 50.4912 75.6511 51.7299 75.9054 52.9739 76.1857 54.2127 76.2376 54.4428 76.2099 54.7785 76.5871 54.7802 76.9643 54.7802 76.9401 54.4428 76.9937 54.2162 77.2826 53.0016 77.5473 51.7819 77.8294 50.5673 78.0612 49.5724 79.0612 49.1278 79.9799 49.5932 80.2654 49.7385 80.3692 49.9911 80.4021 50.2749 80.6115 52.0933 80.8087 53.9117 81.0146 55.7318 81.0371 55.9256 81.0302 56.0778 80.7775 56.083 80.4678 56.0882 80.1409 56.1124 80.0578 55.7128 79.9921 55.3979 79.9661 55.0743 79.9298 54.7525 79.7879 53.4688 79.6478 52.185 79.5076 50.8995 79.4799 50.6451 79.5042 50.3406 79.1374 50.3251 78.7827 50.3095 78.755 50.5984 78.6962 50.8545 78.402 52.1331 78.1131 53.4151 77.7999 54.6903 77.6165 55.4411 77.3657 55.6038 76.5456 55.5986 75.7117 55.5934 75.4885 55.4377 75.3206 54.6712 75.0421 53.4099 74.786 52.1435 74.5161 50.8822 74.4642 50.64 74.4642 50.3216 74.1061 50.3216 73.6926 50.3216 73.7324 50.6832 73.7012 50.9393 73.5109 52.4566 73.3344 53.974 73.1562 55.493 73.1268 55.7387 73.087 55.9619 72.8154 56.0605 72.3638 56.2214 72.1873 56.0398 72.234 55.4688Z" fill="#1F4E79" transform="matrix(1.00218 0 0 1 1242.22 190.033)"/><path d="M45.1519 52.8649C43.6172 54.0899 42.1189 55.1851 40.4009 55.8581 39.7071 56.1297 38.8091 55.8322 38.0323 55.9585 36.5617 56.1989 35.6326 55.6557 35.0789 54.3027 34.88 53.8165 34.5357 53.3892 34.2156 52.8649L45.1519 52.8649Z" fill="#2F5596" transform="matrix(1.00218 0 0 1 1242.22 190.033)"/><path d="M37.3662 5.1922 18.2878 5.1922C24.6357 2.83573 30.9958 2.84611 37.3662 5.1922Z" fill="#2F5597" transform="matrix(1.00218 0 0 1 1242.22 190.033)"/><path d="M102.707 50.9047C102.751 50.9047 102.799 50.8926 102.837 50.9064 103.375 51.1123 104.387 50.4877 104.443 51.3857 104.564 53.3442 104.095 54.2594 102.892 54.4342 102.398 54.5051 101.903 54.5415 101.408 54.5224 100.96 54.5069 100.922 54.7975 100.913 55.1124 100.903 55.4792 101.178 55.4308 101.417 55.4308 102.086 55.4308 102.754 55.4186 103.422 55.4394 103.932 55.455 104.5 55.4013 104.659 56.0969 104.841 56.8875 104.552 57.7751 103.934 58.0035 102.768 58.436 101.56 58.353 100.358 58.1419 100.202 58.1142 100.095 57.9983 100.012 57.8685 99.9183 57.7232 99.8006 57.564 99.8785 57.3928 99.9788 57.173 100.181 57.308 100.337 57.327 101.219 57.4308 102.102 57.4498 102.989 57.391 103.437 57.3616 103.759 57.1834 103.745 56.699 103.732 56.1972 103.309 56.2318 102.975 56.2232 102.133 56.2041 101.29 56.1989 100.448 56.2197 100.102 56.2284 99.9633 56.109 100.019 55.7751 100.192 54.7422 99.9944 53.7162 99.9754 52.6867 99.9511 51.4376 100.359 51.0223 101.607 50.9289 101.972 50.9012 102.34 50.9254 102.707 50.9254 102.707 50.9185 102.707 50.9116 102.707 50.9047Z" fill="#1F4E79" transform="matrix(1.00218 0 0 1 1242.22 190.033)"/><path d="M122.606 49.4807C123.59 49.4807 123.845 49.6451 124.137 50.6123 124.621 52.2179 125.082 53.8321 125.53 55.4481 125.582 55.6349 125.874 55.9342 125.53 56.0467 125.199 56.154 124.763 56.1782 124.594 55.7232 124.428 55.2802 124.281 54.8269 124.179 54.3667 124.078 53.9082 123.857 53.7127 123.374 53.7421 122.793 53.7767 122.208 53.7767 121.627 53.7421 121.144 53.7127 120.915 53.9117 120.817 54.3667 120.732 54.7646 120.59 55.1522 120.474 55.5432 120.419 55.7335 120.343 55.9117 120.151 56.0034 119.928 56.1107 119.663 56.1505 119.467 56.0311 119.255 55.9031 119.441 55.6712 119.492 55.5069 119.986 53.858 120.478 52.2092 121.012 50.5725 121.306 49.6745 121.649 49.4773 122.606 49.4773Z" fill="#1F4E79" transform="matrix(1.00218 0 0 1 1242.22 190.033)"/><path d="M116.081 52.4843C116.081 53.5189 116.068 54.5553 116.088 55.5899 116.095 55.9412 115.986 56.0813 115.63 56.1245 114.725 56.2301 113.824 56.2595 112.919 56.1332 112.185 56.0311 111.763 55.5899 111.58 54.9048 111.353 54.0536 111.379 53.1971 111.597 52.3459 111.823 51.4566 112.432 51.0171 113.317 50.9341 113.81 50.8874 114.315 50.8424 114.799 50.9756 115.121 51.0638 115.18 50.9393 115.177 50.6694 115.17 50.2593 115.196 49.8493 115.17 49.441 115.147 49.0794 115.268 48.96 115.642 48.953 116.038 48.9461 116.097 49.1088 116.09 49.4461 116.073 50.46 116.083 51.4739 116.083 52.4878Z" fill="#1F4E79" transform="matrix(1.00218 0 0 1 1242.22 190.033)"/><path d="M171.85 52.4583C171.85 53.493 171.832 54.5293 171.858 55.564 171.869 55.9533 171.735 56.0882 171.358 56.128 170.431 56.2249 169.509 56.2716 168.585 56.1072 167.967 55.9965 167.585 55.6315 167.401 55.0467 167.088 54.0466 167.123 53.0466 167.465 52.0621 167.654 51.5171 168.048 51.1763 168.616 51.024 169.17 50.8753 169.749 50.813 170.285 50.9393 170.952 51.095 170.997 50.806 170.948 50.3026 170.924 50.0465 170.962 49.7835 170.939 49.5275 170.907 49.1434 170.979 48.9461 171.45 48.9461 171.976 48.9461 171.848 49.2749 171.85 49.5482 171.856 50.5188 171.853 51.4895 171.853 52.4601Z" fill="#1F4E79" transform="matrix(1.00218 0 0 1 1242.22 190.033)"/><path d="M177.604 56.1955C177.173 56.2041 176.742 56.2145 176.317 56.1159 176.076 56.0605 175.869 55.9758 175.734 55.7543 175.64 55.602 175.542 55.4377 175.616 55.2733 175.713 55.064 175.926 55.1747 176.076 55.2006 176.805 55.3269 177.535 55.3494 178.27 55.3079 178.803 55.2785 179.232 55.1436 179.298 54.4826 179.364 53.8269 179.092 53.5501 178.466 53.4445 177.723 53.32 176.993 53.121 176.258 52.9532 175.853 52.8615 175.654 52.6071 175.573 52.1988 175.248 50.5725 175.981 49.5897 177.633 49.498 178.149 49.4686 178.668 49.4911 179.185 49.5067 179.422 49.5136 179.668 49.55 179.852 49.7178 180.045 49.8943 180.241 50.133 180.137 50.3908 180.033 50.6521 179.755 50.4894 179.566 50.4548 178.857 50.3285 178.146 50.3406 177.438 50.4029 176.832 50.4566 176.528 50.7991 176.514 51.4289 176.505 51.8753 176.682 52.1089 177.109 52.1971 177.91 52.3632 178.708 52.557 179.511 52.7127 180.049 52.8165 180.277 53.1435 180.307 53.6539 180.317 53.8252 180.317 53.9982 180.315 54.1712 180.303 55.5847 179.808 56.1055 178.383 56.1938 178.125 56.2093 177.865 56.1955 177.606 56.1955Z" fill="#1F4E79" transform="matrix(1.00218 0 0 1 1242.22 190.033)"/><path d="M47.5205 24.1582C48.844 22.8156 50.3787 21.883 52.0241 21.1287 52.5033 20.9089 53.0449 21.0543 53.5587 21.0474 53.7387 21.0456 53.7992 21.2031 53.8477 21.3501 54.1124 22.1668 54.3719 22.9834 54.6435 23.7983 54.7231 24.0353 54.7058 24.1616 54.4152 24.1616 52.1175 24.1582 49.8181 24.1599 47.5205 24.1599Z" fill="#2F5597" transform="matrix(1.00218 0 0 1 1242.22 190.033)"/><path d="M144.207 54.057C144.207 54.5968 144.2 55.1349 144.21 55.6747 144.215 55.9342 144.127 56.0692 143.852 56.1021 142.842 56.2266 141.828 56.3079 140.823 56.0986 140.132 55.955 139.83 55.4325 139.866 54.5639 139.906 53.6245 140.12 53.3511 140.939 53.2542 141.496 53.1885 142.056 53.1487 142.615 53.1072 142.907 53.0864 143.262 53.1833 143.234 52.6902 143.21 52.2646 143.179 51.8459 142.617 51.794 141.947 51.7317 141.279 51.7594 140.612 51.8165 140.471 51.8286 140.285 51.9514 140.195 51.7905 140.086 51.5967 140.238 51.4168 140.357 51.2732 140.852 50.6763 143.437 50.7576 143.878 51.396 144.228 51.903 144.162 52.5103 144.203 53.0864 144.226 53.4082 144.207 53.7335 144.207 54.057Z" fill="#204E79" transform="matrix(1.00218 0 0 1 1242.22 190.033)"/><path d="M164.202 53.8338C163.879 53.8338 163.552 53.8079 163.23 53.8407 162.958 53.8684 162.515 53.6556 162.46 54.0639 162.401 54.4965 162.486 54.9844 162.995 55.211 163.38 55.3823 163.796 55.3806 164.201 55.3788 164.566 55.3788 164.931 55.3079 165.294 55.2647 165.455 55.2456 165.652 55.0795 165.768 55.2612 165.906 55.4757 165.725 55.6678 165.598 55.8373 165.536 55.9204 165.446 56.019 165.355 56.0398 164.287 56.2803 163.223 56.3772 162.202 55.846 162.128 55.8062 162.06 55.7474 162 55.6885 161.283 54.9775 161.232 52.5829 161.912 51.6383 162.45 50.8908 164.225 50.6244 165.22 51.1382 165.827 51.4514 165.915 52.0414 165.988 52.6175 166.142 53.8321 166.13 53.8338 164.913 53.8338 164.676 53.8338 164.438 53.8338 164.201 53.8338Z" fill="#204E79" transform="matrix(1.00218 0 0 1 1242.22 190.033)"/><path d="M108.481 53.8338C108.071 53.8338 107.657 53.8615 107.251 53.8269 106.756 53.7836 106.661 54.0103 106.733 54.4359 106.82 54.948 107.1 55.2404 107.617 55.3183 108.31 55.4221 108.993 55.3754 109.673 55.2301 109.797 55.2041 109.939 55.1349 110.038 55.2474 110.163 55.3875 110.048 55.5311 109.986 55.6609 109.855 55.9342 109.628 56.0675 109.33 56.1245 108.687 56.2491 108.036 56.2526 107.396 56.1661 106.386 56.0294 105.963 55.6159 105.78 54.602 105.652 53.8978 105.654 53.1867 105.822 52.4843 106.055 51.5085 106.567 51.0465 107.555 50.9272 107.726 50.9064 107.899 50.9064 108.073 50.9029 109.799 50.8718 110.334 51.4081 110.28 53.4964 110.272 53.8079 110.074 53.8321 109.842 53.8321 109.389 53.8321 108.936 53.8321 108.483 53.8321Z" fill="#204E79" transform="matrix(1.00218 0 0 1 1242.22 190.033)"/><path d="M86.3798 53.8961C86.3798 54.4134 86.3798 54.7785 86.3798 55.1453 86.3798 56.0865 86.3798 56.1055 85.4663 56.1695 84.6704 56.2266 83.8693 56.2872 83.0787 56.1142 82.2966 55.9446 82.0215 55.4896 82.07 54.5051 82.115 53.5778 82.3157 53.3425 83.1825 53.2438 83.7188 53.1833 84.2569 53.1487 84.795 53.102 85.0753 53.0777 85.4628 53.204 85.4334 52.7058 85.4092 52.2922 85.3815 51.8545 84.8244 51.794 84.1565 51.7196 83.4887 51.7594 82.8191 51.8078 82.6669 51.8182 82.4593 51.9722 82.3676 51.7421 82.2984 51.569 82.4368 51.4151 82.5371 51.2766 82.6409 51.133 82.7897 51.0414 82.9662 51.0085 83.8226 50.8562 84.6825 50.8164 85.5337 51.0327 85.9836 51.1469 86.186 51.4825 86.2794 51.9168 86.43 52.621 86.3504 53.3338 86.3798 53.8926Z" fill="#1F4E79" transform="matrix(1.00218 0 0 1 1242.22 190.033)"/><path d="M98.3456 54.0086C98.3456 54.5484 98.3404 55.0865 98.3473 55.6263 98.3508 55.8927 98.3075 56.0726 97.9822 56.1107 97.0133 56.2249 96.0462 56.2768 95.0773 56.1315 94.5911 56.0588 94.2209 55.8304 94.1153 55.3114 93.9873 54.6885 93.9371 54.0657 94.3333 53.5103 94.4821 53.3009 94.7572 53.3009 94.9856 53.2715 95.5635 53.1971 96.1465 53.1642 96.7261 53.1037 97.0133 53.0743 97.4355 53.2456 97.4061 52.6885 97.3819 52.2265 97.2884 51.8216 96.7071 51.7836 96.0808 51.7438 95.4562 51.7611 94.8299 51.8061 94.6621 51.8182 94.4164 51.9895 94.3299 51.7196 94.2693 51.5275 94.4302 51.3562 94.5617 51.2126 94.7157 51.0448 94.932 50.9877 95.1465 50.96 95.7918 50.8753 96.4424 50.8649 97.086 50.9393 97.894 51.031 98.2314 51.3787 98.2902 52.1988 98.3334 52.7992 98.2989 53.4047 98.2989 54.0068 98.3144 54.0068 98.3317 54.0068 98.3473 54.0068Z" fill="#1F4E79" transform="matrix(1.00218 0 0 1 1242.22 190.033)"/><path d="M151.067 53.4117C151.079 53.2836 151.084 52.9584 151.14 52.6435 151.328 51.5898 151.89 51.0673 152.951 50.9306 153.015 50.922 153.081 50.9168 153.145 50.9168 154.086 50.9185 155.174 50.7247 155.66 51.7767 156.237 53.0224 156.264 54.3875 155.439 55.5328 154.799 56.4221 153.7 56.2855 152.74 56.1574 151.513 55.9948 151.063 55.2543 151.067 53.4117Z" fill="#204E79" transform="matrix(1.00218 0 0 1 1242.22 190.033)"/><path d="M183.743 50.9029C185.729 50.9064 186.227 51.351 186.414 52.9843 186.424 53.0691 186.447 53.1539 186.454 53.2386 186.641 55.602 184.952 56.8685 182.708 56.0467 182.237 55.8754 181.883 55.5726 181.725 55.0899 181.403 54.0985 181.388 53.0916 181.741 52.1123 182.135 51.0154 183.094 50.9116 183.743 50.9012Z" fill="#204E79" transform="matrix(1.00218 0 0 1 1242.22 190.033)"/><path d="M208.615 53.4947C208.602 55.9481 207.313 56.5917 204.857 56.038 204.349 55.9239 204.01 55.5449 203.852 55.0311 203.56 54.0778 203.56 53.1262 203.864 52.1763 204.065 51.55 204.492 51.1746 205.134 51.0171 205.774 50.8597 206.418 50.8683 207.06 50.9635 207.856 51.0811 208.335 51.5535 208.473 52.3442 208.539 52.7231 208.57 53.1106 208.617 53.493Z" fill="#1F4E79" transform="matrix(1.00218 0 0 1 1242.22 190.033)"/><path d="M88.0667 53.5691C88.0667 52.8805 88.0736 52.1919 88.0632 51.5033 88.0598 51.2334 88.1013 51.0673 88.43 51.0292 89.3314 50.9254 90.2346 50.8562 91.1395 50.9254 92.1274 51.0016 92.534 51.396 92.572 52.3978 92.6153 53.4947 92.5755 54.5934 92.5945 55.6903 92.5997 56.0104 92.4821 56.1055 92.1793 56.0865 91.8955 56.0692 91.6066 56.128 91.6118 55.6868 91.6222 54.7404 91.6308 53.7923 91.6031 52.8459 91.5772 51.9479 91.3765 51.7697 90.4785 51.7161 90.4145 51.7127 90.3488 51.7161 90.2848 51.7144 89.467 51.7028 89.0581 52.1065 89.0581 52.9255 89.0581 53.8079 89.0442 54.6903 89.065 55.5726 89.0737 55.9567 88.9525 56.0882 88.5494 56.0969 88.1238 56.1055 88.0459 55.9446 88.0598 55.5709 88.0857 54.9048 88.0667 54.2369 88.0667 53.5691Z" fill="#204F79" transform="matrix(1.00218 0 0 1 1242.22 190.033)"/><path d="M210.077 53.5414C210.077 52.8736 210.093 52.204 210.072 51.5362 210.062 51.1815 210.183 51.0621 210.544 51.0206 211.429 50.9168 212.311 50.8597 213.195 50.9306 214.11 51.0033 214.493 51.3407 214.548 52.2559 214.617 53.4169 214.581 54.583 214.607 55.7456 214.616 56.1245 214.375 56.0796 214.135 56.0848 213.854 56.0917 213.619 56.0848 213.626 55.6937 213.641 54.8529 213.633 54.012 213.629 53.1712 213.624 51.8995 213.425 51.704 212.164 51.7161 211.422 51.723 211.051 52.0846 211.051 52.8009 211.051 53.685 211.046 54.5691 211.055 55.4533 211.058 55.8166 211.096 56.1055 210.544 56.1038 210.008 56.1038 210.076 55.8079 210.077 55.4844 210.079 54.8373 210.077 54.1902 210.077 53.5432Z" fill="#204E79" transform="matrix(1.00218 0 0 1 1242.22 190.033)"/><path d="M195.099 53.5293C195.099 54.1972 195.087 54.8633 195.105 55.5311 195.113 55.865 195.028 56.0328 194.66 56.0882 193.779 56.2197 192.897 56.2682 192.016 56.173 191.03 56.0657 190.648 55.6384 190.629 54.6574 190.608 53.6037 190.629 52.5483 190.62 51.4929 190.617 51.1953 190.646 51.0154 191.027 51.024 191.4 51.0327 191.58 51.1192 191.57 51.531 191.549 52.3909 191.561 53.2525 191.565 54.1141 191.568 55.0986 191.784 55.3287 192.758 55.4013 192.866 55.41 192.975 55.4065 193.082 55.4031 194.134 55.3685 194.158 55.3425 194.158 54.2975 194.158 53.3511 194.174 52.403 194.151 51.4566 194.143 51.1071 194.264 51.0189 194.594 51.0258 194.914 51.0327 195.125 51.0483 195.108 51.4635 195.079 52.1504 195.099 52.8407 195.099 53.5293Z" fill="#1F4E79" transform="matrix(1.00218 0 0 1 1242.22 190.033)"/><path d="M217.489 56.2059C217.278 56.1938 216.88 56.2543 216.515 56.0865 216.24 55.9602 216.036 55.7128 216.105 55.4238 216.176 55.128 216.475 55.32 216.659 55.3321 217.238 55.3719 217.813 55.4463 218.398 55.3546 218.778 55.2958 218.981 55.102 219.017 54.7318 219.057 54.3408 218.792 54.211 218.477 54.1366 217.995 54.0207 217.517 53.8909 217.031 53.7958 216.484 53.6885 216.055 53.5241 216.041 52.8355 216.024 51.9289 216.302 51.2818 216.936 51.0725 217.711 50.8164 218.51 50.8718 219.306 50.9721 219.512 50.9981 219.659 51.1227 219.758 51.3026 219.832 51.4376 219.901 51.5915 219.822 51.7299 219.747 51.858 219.588 51.7957 219.465 51.7905 218.927 51.768 218.389 51.7248 217.853 51.723 217.41 51.723 217.034 51.8632 216.991 52.3926 216.946 52.9272 217.356 52.9376 217.714 53.0155 218.261 53.1331 218.808 53.2629 219.353 53.3874 219.711 53.4688 219.891 53.6989 219.951 54.0587 220.175 55.4013 219.595 56.1367 218.247 56.2024 218.053 56.2111 217.86 56.2024 217.489 56.2024Z" fill="#204E79" transform="matrix(1.00218 0 0 1 1242.22 190.033)"/><path d="M136.589 49.6105C137.302 49.6105 138.016 49.5967 138.727 49.6192 138.916 49.6244 139.265 49.4479 139.253 49.851 139.245 50.1745 139.089 50.4202 138.682 50.3925 138.317 50.3683 137.947 50.4098 137.58 50.3822 137.077 50.3441 136.895 50.5379 136.904 51.05 136.93 52.5379 136.909 54.0259 136.916 55.5138 136.916 55.8841 136.866 56.1228 136.385 56.0969 136.023 56.0778 135.911 55.9913 135.916 55.6228 135.935 54.1781 135.926 52.7334 135.923 51.2888 135.921 50.4185 135.887 50.3874 135.009 50.3856 134.707 50.3856 134.402 50.4098 134.103 50.377 133.918 50.3562 133.568 50.5638 133.592 50.133 133.61 49.8216 133.769 49.607 134.125 49.6088 134.947 49.6122 135.767 49.6088 136.589 49.6088Z" fill="#204F79" transform="matrix(1.00218 0 0 1 1242.22 190.033)"/><path d="M197.108 53.6158C197.108 53.2923 197.099 52.9687 197.11 52.6469 197.125 52.1781 197.182 51.6902 196.451 51.8061 196.34 51.8234 196.226 51.7819 196.241 51.6365 196.267 51.3943 196.342 51.076 196.586 51.0777 197.172 51.0811 197.103 50.7161 197.113 50.3458 197.118 50.1174 197.103 49.877 197.373 49.7334 197.823 49.4929 198.035 49.6019 198.049 50.1071 198.065 50.7253 198.389 51.0344 199.02 51.0344 199.236 51.0344 199.454 51.0137 199.667 51.0414 199.856 51.0656 200.181 50.896 200.205 51.1953 200.229 51.505 200.011 51.7732 199.657 51.8026 199.314 51.8303 198.965 51.8286 198.62 51.8078 198.214 51.7853 198.027 51.9255 198.042 52.3597 198.067 53.0483 198.06 53.7387 198.046 54.429 198.034 55.0242 198.29 55.3114 198.899 55.275 199.157 55.2595 199.418 55.2733 199.676 55.2595 199.819 55.2526 199.997 55.1401 200.084 55.3114 200.191 55.5207 200.041 55.7093 199.888 55.8097 199.196 56.2664 198.442 56.1349 197.71 55.9463 197.155 55.8027 197.139 55.3096 197.136 54.8442 197.132 54.4359 197.136 54.0259 197.136 53.6175 197.127 53.6175 197.118 53.6175 197.108 53.6175Z" fill="#1F4E79" transform="matrix(1.00218 0 0 1 1242.22 190.033)"/><path d="M53.1504 11.0938C51.9947 11.4813 51.2542 12.2063 50.8683 13.3897 50.4704 12.2339 49.7299 11.4623 48.3734 11.1007 49.7005 10.7235 50.4704 10.0003 50.8545 8.81688 51.2628 9.9657 51.9791 10.7339 53.1504 11.0955Z" fill="#FEB602" transform="matrix(1.00218 0 0 1 1242.22 190.033)"/><path d="M43.3075 5.54169C44.6017 5.14202 45.3976 4.44823 45.7626 3.23885 46.1692 4.39287 46.8803 5.1749 48.0741 5.51055 46.9391 5.91714 46.1571 6.61612 45.773 7.81339 45.3768 6.65072 44.6294 5.89464 43.3058 5.53996Z" fill="#FEB602" transform="matrix(1.00218 0 0 1 1242.22 190.033)"/><path d="M52.3839 4.56588C51.9895 3.38765 51.2351 2.67655 49.9392 2.31322 51.2109 1.9049 52.0016 1.21111 52.3822 0.00173016 52.7802 1.16094 53.5068 1.95335 54.711 2.289 53.5345 2.67136 52.7732 3.40322 52.3839 4.56761Z" fill="#FEB602" transform="matrix(1.00218 0 0 1 1242.22 190.033)"/><path d="M157.47 53.5587C157.47 52.8701 157.482 52.1815 157.465 51.4947 157.456 51.178 157.552 51.0396 157.887 50.9946 158.617 50.8995 159.347 50.8943 160.081 50.9168 160.306 50.9237 160.512 50.9843 160.647 51.1746 160.745 51.3147 160.851 51.4739 160.789 51.6521 160.707 51.8805 160.501 51.7732 160.344 51.7732 159.892 51.7732 159.439 51.7732 158.986 51.7663 158.616 51.7611 158.458 51.9012 158.468 52.3044 158.494 53.3788 158.463 54.4549 158.484 55.5294 158.491 55.9273 158.408 56.1038 157.953 56.1003 157.522 56.0951 157.455 55.9239 157.467 55.5588 157.488 54.8927 157.474 54.2248 157.474 53.5587Z" fill="#22507A" transform="matrix(1.00218 0 0 1 1242.22 190.033)"/><path d="M127.867 52.7819C127.867 53.7092 127.855 54.6366 127.872 55.564 127.879 55.9533 127.743 56.0865 127.348 56.0969 126.919 56.109 126.853 55.9256 126.857 55.5588 126.871 53.7698 126.869 51.9791 126.857 50.1901 126.855 49.8043 126.935 49.6122 127.39 49.5932 127.907 49.5724 127.874 49.8527 127.871 50.1953 127.862 51.0569 127.867 51.9203 127.867 52.7836Z" fill="#23517B" transform="matrix(1.00218 0 0 1 1242.22 190.033)"/><path d="M188.873 52.5898C188.873 53.5778 188.873 54.5674 188.873 55.5553 188.873 55.8443 188.905 56.109 188.459 56.0917 188.091 56.0778 187.895 55.9792 187.895 55.5813 187.9 53.4964 187.905 51.4133 187.892 49.3285 187.888 48.915 188.139 48.9721 188.4 48.9582 188.705 48.9409 188.883 48.9998 188.878 49.3666 188.86 50.441 188.873 51.5154 188.873 52.5898Z" fill="#1F4E79" transform="matrix(1.00218 0 0 1 1242.22 190.033)"/><path d="M149.576 52.5258C149.576 53.5362 149.576 54.5449 149.576 55.5553 149.576 55.8425 149.608 56.1107 149.164 56.0934 148.795 56.0796 148.6 55.9827 148.6 55.583 148.605 53.4982 148.61 51.4151 148.596 49.3302 148.593 48.9167 148.842 48.9738 149.103 48.96 149.408 48.9444 149.586 48.9998 149.581 49.3683 149.563 50.4202 149.576 51.4739 149.576 52.5276Z" fill="#1F4E79" transform="matrix(1.00218 0 0 1 1242.22 190.033)"/><path d="M16.1441 23.8104C15.6129 22.9557 15.1389 22.191 14.6631 21.4263 14.5368 21.2238 14.4139 21.0318 14.8223 21.0335 15.9763 21.0387 17.1303 21.0352 18.4279 21.0352 17.5559 21.9384 16.8067 22.7775 16.1441 23.8104Z" fill="#315798" transform="matrix(1.00218 0 0 1 1242.22 190.033)"/><path d="M202.183 53.5864C202.183 54.2767 202.164 54.9671 202.19 55.6557 202.205 56.0761 201.973 56.0796 201.66 56.0917 201.312 56.1038 201.164 56.0225 201.169 55.6332 201.191 54.2542 201.19 52.8753 201.169 51.4964 201.164 51.1209 201.295 51.0223 201.655 51.0223 202.027 51.0223 202.209 51.0967 202.19 51.5189 202.158 52.2075 202.181 52.8978 202.181 53.5881Z" fill="#23517B" transform="matrix(1.00218 0 0 1 1242.22 190.033)"/><path d="M5.50709 14.6285C6.08323 13.7651 6.7528 13.0661 7.37566 12.3308 7.56943 12.1007 7.70266 12.1128 7.85837 12.3672 8.30302 13.0973 8.75978 13.8222 9.26153 14.6285L5.50709 14.6285Z" fill="#5C9BD5" transform="matrix(1.00218 0 0 1 1242.22 190.033)"/><path d="M146.852 53.5553C146.852 54.2421 146.837 54.9307 146.859 55.6159 146.871 55.9809 146.745 56.1038 146.378 56.0917 146.06 56.0813 145.864 56.0709 145.871 55.6557 145.895 54.2594 145.894 52.8632 145.871 51.4687 145.864 51.0638 146.049 51.0327 146.376 51.024 146.74 51.0137 146.871 51.1261 146.859 51.4947 146.837 52.1815 146.852 52.8684 146.852 53.5553Z" fill="#1F4E79" transform="matrix(1.00218 0 0 1 1242.22 190.033)"/><path d="M130.793 55.1124C130.592 55.6609 130.417 56.1436 130.238 56.6263 130.153 56.8529 130.039 57.0727 129.765 57.1004 129.599 57.1177 129.39 57.1384 129.269 57.0554 129.13 56.9619 129.289 56.7837 129.327 56.6522 129.424 56.3235 129.564 56.0069 129.66 55.6764 129.824 55.1072 130.182 54.9307 130.795 55.1124Z" fill="#23517B" transform="matrix(1.00218 0 0 1 1242.22 190.033)"/><path d="M201.722 49.0915C202.077 49.0638 202.311 49.178 202.314 49.5794 202.318 49.9963 202.091 50.133 201.7 50.1347 201.323 50.1347 201.065 50.0448 201.075 49.6053 201.086 49.1728 201.349 49.0638 201.722 49.0915Z" fill="#29557E" transform="matrix(1.00218 0 0 1 1242.22 190.033)"/><path d="M146.401 50.1261C146.034 50.1486 145.767 50.0811 145.774 49.6209 145.78 49.1797 146.022 49.0897 146.392 49.088 146.735 49.0863 146.979 49.1555 146.984 49.569 146.989 49.979 146.799 50.159 146.401 50.1278Z" fill="#23517B" transform="matrix(1.00218 0 0 1 1242.22 190.033)"/><path d="M140.705 28.7587C141.835 28.7846 143.217 28.7275 144.6 28.814 145.864 28.8936 146.548 29.6583 146.93 30.7432 147.312 31.8262 147.292 32.9422 147.008 34.0529 146.677 35.3436 145.797 35.9821 144.517 36.1499 142.321 36.4371 140.118 36.3419 137.916 36.316 137.483 36.3108 137.053 36.2762 136.62 36.2814 136.179 36.2866 135.973 36.0547 135.971 35.6516 135.961 33.5166 135.964 31.3833 135.968 29.2483 135.968 28.8556 136.205 28.7517 136.565 28.7535 137.861 28.7656 139.158 28.7587 140.707 28.7587Z" fill="#FEFEFE" transform="matrix(1.00218 0 0 1 1242.22 190.033)"/><path d="M140.29 24.8174C139.058 24.8174 137.826 24.8035 136.594 24.8243 136.127 24.8312 135.942 24.6772 135.947 24.1928 135.968 22.4453 135.968 20.6979 135.947 18.9521 135.94 18.3379 136.165 18.0403 136.807 18.0403 139.16 18.0403 141.516 17.8881 143.866 18.1528 145.579 18.3466 146.368 19.1667 146.447 20.883 146.494 21.883 146.458 22.8657 145.88 23.7481 145.444 24.416 144.854 24.7707 144.046 24.7655 142.793 24.7585 141.539 24.7637 140.286 24.7637 140.286 24.7828 140.286 24.8001 140.286 24.8191Z" fill="#FEFEFE" transform="matrix(1.00218 0 0 1 1242.22 190.033)"/><path d="M88.0079 26.8693C87.9681 29.1756 87.8625 31.2466 87.1134 33.2501 86.4957 34.9042 85.3971 35.8852 83.6704 36.1983 81.7412 36.5478 79.8052 36.6326 77.8778 36.2433 75.9867 35.861 74.6753 34.7831 74.1632 32.8799 73.1562 29.1341 73.1337 25.3831 74.2462 21.6564 74.8656 19.5802 76.2999 18.3864 78.4401 18.0127 80.5128 17.6493 82.5665 17.6839 84.5908 18.286 85.7881 18.6424 86.5511 19.4833 87.039 20.6079 87.9387 22.6824 87.9456 24.8866 88.0113 26.8711Z" fill="#FEFEFE" transform="matrix(1.00218 0 0 1 1242.22 190.033)"/><path d="M282.431 27.3469C281.244 27.3469 280.057 27.3538 278.87 27.3451 278.19 27.3399 278.078 27.2084 278.399 26.6531 279.848 24.1357 281.213 21.5681 282.915 19.2047 283.74 18.0594 284.91 17.8708 286.201 18.0628 286.843 18.158 287.076 18.6182 287.144 19.2047 287.254 20.1684 287.291 21.1356 287.265 22.1062 287.228 23.4834 287.206 24.8623 287.163 26.2396 287.137 27.0458 286.863 27.3261 286.057 27.3399 284.85 27.3607 283.64 27.3451 282.432 27.3451L282.432 27.3486Z" fill="#FEFEFE" transform="matrix(1.00218 0 0 1 1242.22 190.033)"/><path d="M165.31 27.8936C163.993 27.8936 162.676 27.8728 161.361 27.904 160.818 27.9161 160.59 27.7984 160.655 27.1911 160.751 26.3174 160.981 25.5077 161.429 24.7534 161.918 23.9281 162.711 23.5665 163.597 23.3744 164.853 23.1028 166.126 23.0768 167.389 23.2948 169.149 23.5976 169.87 24.326 170.016 26.1184 170.192 28.3157 170.311 27.8503 168.481 27.8901 167.424 27.9143 166.367 27.8936 165.31 27.8936Z" fill="#FEFEFE" transform="matrix(1.00218 0 0 1 1242.22 190.033)"/><path d="M216.214 33.8194C216.214 34.444 216.212 35.0685 216.214 35.6931 216.216 36.1758 215.988 36.4648 215.503 36.5323 213.354 36.8298 211.204 36.925 209.057 36.5253 208.276 36.38 207.809 35.9059 207.64 35.1239 207.477 34.3747 207.473 33.6342 207.624 32.8816 207.721 32.4006 207.982 32.1117 208.463 32.0269 210.918 31.5978 213.399 31.5286 215.882 31.4906 216.225 31.4854 216.261 31.6792 216.259 31.9456 216.252 32.5702 216.257 33.1965 216.257 33.8211L216.214 33.8211Z" fill="#FEFEFE" transform="matrix(1.00218 0 0 1 1242.22 190.033)"/><path d="M101.771 53.7836C101.342 53.775 100.948 53.8113 100.892 53.1954 100.804 52.2161 100.944 51.858 101.621 51.7351 101.936 51.678 102.268 51.659 102.586 51.6902 102.929 51.723 103.427 51.4704 103.538 52.0552 103.666 52.7369 103.316 53.4566 102.789 53.6089 102.46 53.7041 102.112 53.7266 101.773 53.7819Z" fill="#FDFDFD" transform="matrix(1.00218 0 0 1 1242.22 190.033)"/><path d="M122.516 52.9757C121.104 52.967 121.175 53.1487 121.571 51.7109 121.663 51.3822 121.779 51.0586 121.9 50.7386 122.016 50.4358 122.268 50.3527 122.573 50.351 122.9 50.3493 123.108 50.5015 123.196 50.8009 123.353 51.3355 123.473 51.8805 123.653 52.4064 123.805 52.8511 123.672 53.0068 123.223 52.9774 122.988 52.9618 122.751 52.9739 122.514 52.9739Z" fill="#FDFDFE" transform="matrix(1.00218 0 0 1 1242.22 190.033)"/><path d="M115.173 53.5432C115.173 53.9515 115.147 54.3615 115.18 54.7681 115.218 55.2301 114.983 55.3806 114.58 55.3944 114.536 55.3944 114.493 55.4048 114.452 55.4013 113.791 55.3494 112.96 55.6211 112.616 54.8217 112.24 53.9515 112.265 53.0085 112.723 52.1452 112.972 51.6746 114.689 51.4825 115.064 51.8355 115.19 51.9531 115.173 52.1089 115.175 52.2559 115.178 52.685 115.175 53.1158 115.175 53.5449Z" fill="#FEFEFE" transform="matrix(1.00218 0 0 1 1242.22 190.033)"/><path d="M170.943 53.576C170.943 53.8771 170.943 54.1781 170.943 54.4792 170.943 55.3667 170.922 55.4065 170.057 55.3962 169.431 55.3892 168.657 55.5605 168.367 54.7923 168.024 53.8875 168.012 52.9272 168.543 52.0639 168.794 51.6573 170.431 51.5223 170.805 51.8147 170.948 51.9255 170.938 52.076 170.938 52.223 170.943 52.6746 170.938 53.1262 170.939 53.576Z" fill="#FEFEFE" transform="matrix(1.00218 0 0 1 1242.22 190.033)"/><path d="M142.181 55.4533C141.058 55.4533 140.804 55.2699 140.831 54.5588 140.843 54.2266 140.97 54.0328 141.316 54.0034 141.636 53.9757 141.956 53.9359 142.278 53.9117 143.281 53.8373 143.259 53.839 143.241 54.8252 143.226 55.7266 142.537 55.3339 142.181 55.4533Z" fill="#FDFDFD" transform="matrix(1.00218 0 0 1 1242.22 190.033)"/><path d="M163.694 53.1054C163.522 53.1054 163.348 53.1262 163.18 53.1002 162.946 53.0622 162.619 53.2577 162.496 52.9393 162.394 52.6763 162.505 52.3909 162.65 52.1452 162.906 51.7161 163.647 51.5293 164.346 51.6988 164.82 51.8147 164.976 52.1469 165.021 52.5933 165.059 52.9826 164.931 53.1487 164.526 53.1089 164.251 53.0829 163.969 53.1037 163.69 53.1037Z" fill="#FDFEFE" transform="matrix(1.00218 0 0 1 1242.22 190.033)"/><path d="M107.991 53.1054C107.82 53.1054 107.645 53.121 107.476 53.102 107.233 53.0726 106.908 53.2386 106.768 52.9722 106.623 52.6936 106.758 52.3736 106.931 52.1244 107.33 51.55 107.943 51.6504 108.517 51.6902 108.931 51.7196 109.161 51.9687 109.256 52.3753 109.37 52.8632 109.329 53.1885 108.699 53.1089 108.465 53.0795 108.226 53.1037 107.989 53.1037Z" fill="#FDFDFD" transform="matrix(1.00218 0 0 1 1242.22 190.033)"/><path d="M84.3624 55.4533C83.2586 55.4533 82.961 55.2439 83.006 54.557 83.0268 54.2318 83.1617 54.0311 83.506 54.0016 83.8486 53.9722 84.1911 53.9307 84.5337 53.9065 85.4715 53.839 85.442 53.8425 85.4472 54.7629 85.4524 55.6903 84.7656 55.3667 84.3607 55.4533Z" fill="#FCFCFD" transform="matrix(1.00218 0 0 1 1242.22 190.033)"/><path d="M96.2953 55.4533C95.2244 55.4567 94.9406 55.2699 94.9735 54.5864 94.9891 54.2404 95.1206 54.0155 95.5064 53.9947 95.8282 53.9774 96.15 53.9307 96.4718 53.9082 97.3628 53.8442 97.6812 54.2698 97.3801 55.1159 97.2763 55.41 97.1414 55.4515 96.2971 55.4533Z" fill="#FDFDFD" transform="matrix(1.00218 0 0 1 1242.22 190.033)"/><path d="M155.048 53.4376C155.036 53.6833 155.031 53.8131 155.022 53.9411 154.918 55.2231 153.762 55.8304 152.603 55.2214 152.375 55.102 152.236 54.9221 152.166 54.6903 151.942 53.9497 151.939 53.204 152.176 52.4687 152.358 51.9047 152.897 51.659 153.721 51.6954 154.339 51.723 154.823 51.9324 154.96 52.5933 155.024 52.9065 155.029 53.2317 155.05 53.4376Z" fill="#FEFEFE" transform="matrix(1.00218 0 0 1 1242.22 190.033)"/><path d="M185.485 53.4878C185.485 53.5951 185.485 53.7023 185.485 53.8096 185.475 55.4879 184.312 55.5588 183.109 55.2491 183.089 55.2439 183.071 55.2283 183.052 55.2179 182.426 54.8875 182.227 53.0535 182.727 52.2352 183.077 51.6642 184.433 51.4877 185.021 51.9358 185.34 52.1781 185.485 52.6642 185.483 53.4861Z" fill="#FEFEFE" transform="matrix(1.00218 0 0 1 1242.22 190.033)"/><path d="M207.638 53.4809C207.638 53.6089 207.643 53.7387 207.638 53.8667 207.565 55.5103 206.446 55.5432 205.262 55.2526 205.242 55.2474 205.223 55.2352 205.205 55.2231 204.404 54.6522 204.633 53.8113 204.655 53.0414 204.672 52.4566 204.868 51.9583 205.537 51.7767 206.941 51.3978 207.643 51.9549 207.638 53.4809Z" fill="#FEFEFE" transform="matrix(1.00218 0 0 1 1242.22 190.033)"/></g></g></g></g></svg>