<?xml version="1.0" encoding="UTF-8"?>
<svg id="logo-onbehalf-transparent" xmlns="http://www.w3.org/2000/svg" viewBox="0 0 943.35 216.74">
  <defs>
    <style>
      .cls-1, .cls-2, .cls-3, .cls-4, .cls-5, .cls-6, .cls-7, .cls-8, .cls-9, .cls-10, .cls-11, .cls-12, .cls-13, .cls-14, .cls-15, .cls-16, .cls-17, .cls-18, .cls-19, .cls-20, .cls-21, .cls-22, .cls-23, .cls-24, .cls-25, .cls-26, .cls-27, .cls-28, .cls-29, .cls-30, .cls-31, .cls-32, .cls-33, .cls-34, .cls-35, .cls-36, .cls-37, .cls-38, .cls-39, .cls-40, .cls-41, .cls-42, .cls-43, .cls-44, .cls-45, .cls-46 {
        stroke-width: 0px;
      }
      .cls-1 { fill: #1d4c78; }
      .cls-2 { fill: #2f5596; }
      .cls-3 { fill: #254d92; }
      .cls-4 { fill: #154673; }
      .cls-5 { fill: #5b9ad3; }
      .cls-6 { fill: #254d90; }
      .cls-7 { fill: #5696d2; }
      .cls-8 { fill: #335898; }
      .cls-9 { fill: #1b4b76; }
      .cls-10 { fill: #cdd7e0; }
      .cls-11 { fill: #305597; }
      .cls-12 { fill: #274e92; }
      .cls-13 { fill: #144673; }
      .cls-14 { fill: #1f4e79; }
      .cls-15 { fill: #5497d1; }
      .cls-16 { fill: #194975; }
      .cls-17 { fill: #5495d1; }
      .cls-18 { fill: #2f5595; }
      .cls-19 { fill: #295093; }
      .cls-20 { fill: #5f9dd5; }
      .cls-21 { fill: #174874; }
      .cls-22 { fill: #295092; }
      .cls-23 { fill: #274f92; }
      .cls-24 { fill: #174774; }
      .cls-25 { fill: #27547e; }
      .cls-26 { fill: #1d4c77; }
      .cls-27 { fill: #164774; }
      .cls-28 { fill: #164773; }
      .cls-29 { fill: #184875; }
      .cls-30 { fill: #1a4a76; }
      .cls-31 { fill: #1e4d78; }
      .cls-32 { fill: #fdb606; }
      .cls-33 { fill: #5394d1; }
      .cls-34 { fill: #204e79; }
      .cls-35 { fill: #2f5597; }
      .cls-36 { fill: #184874; }
      .cls-37 { fill: #1c4b77; }
      .cls-38 { fill: #fdb605; }
      .cls-39 { fill: #fdb401; }
      .cls-40 { fill: #2a5094; }
      .cls-41 { fill: #284f93; }
      .cls-42 { fill: #5b99d3; }
      .cls-43 { fill: #5596d2; }
      .cls-44 { fill: #73a8d8; }
      .cls-45 { fill: #5697d2; }
      .cls-46 { fill: #5496d2; }
    </style>
  </defs>
  <path class="cls-14" d="M940.33,72.05c1.43.13,1.81,1.18,1.94,2.33.48,4.18-3.49,9.3-7.93,10.27-6.04-.76-12.12-.12-18.17-.36-1.32-.05-2.7.37-3.32.04,4.86,0,10.37-.04,15.88.03,1.44.02,2.97-.48,4.34.44-6.43,1.09-12.9.19-19.35.48-1.62.07-3.31-.15-4,1.85-.84.5-.49,1.33-.49,2.01-.02,16.67-.02,33.33,0,50,0,.85-.21,1.75.38,2.52.4,2.2-.68,3.45-2.73,3.55-3.47.17-6.96.16-10.44.06-1.65-.05-2.86-.87-2.64-2.84.7-.73.43-1.65.43-2.49.02-16.43.02-32.86,0-49.29,0-.67.4-1.51-.49-1.98-.34-2.5-1.65-3.74-4.29-3.42-.98.12-2,.02-2.99,0-5.36-.06-7.07-2.62-4.99-7.66,1.57-3.82,4.53-6.12,8.64-6.06,3.07.05,3.5-1.36,3.51-3.83.01-4.25.38-8.46,1.6-12.58,1.77-5.94,5.52-9.94,11.42-11.88,9.47-3.11,19.09-3.25,28.84-1.53,3.84.68,5.89,3.36,7.88,6.24v6.75c-2.54.96-5.15.6-7.75.41-5.61-.41-11.24-.77-16.83-.05-6.24.8-8.11,2.92-8.67,9.21-.64,7.19-.63,7.09,6.58,7.17,7.47.08,14.95-.46,22.41.39-2.89,1.08-5.89.39-8.84.44-6.02.11-12.05.1-17.21,0-1.36.17-.67.91-.89.47-.04-.07.33-.38.55-.38,7.85-.04,15.7,0,23.56-.04,1.35,0,2.74.27,4.06-.28Z"/>
  <path class="cls-42" d="M0,110.93c15.81-.01,31.61.06,47.41-.11,3.1-.03,4.14,1.08,3.65,3.86-.4,2.26,1.71,4.52-.07,6.74-15.05,0-30.1,0-45.14,0-4.93,0-4.93-.02-5.14-4.94-.23-.85-.15-1.79-.71-2.55v-3Z"/>
  <path class="cls-43" d="M.77,115.43q1.86,5.24,8.28,5.24c12.69,0,25.38-.01,38.07.02,1.31,0,2.77-.5,3.87.72-.93.91-2.12.58-3.2.58-14.46.02-28.92.02-43.37-.03-1.47,0-2.94-.36-4.42-.55,0-.5,0-1,0-1.5.99-1.37-.21-3.12.77-4.49Z"/>
  <path class="cls-44" d="M.77,115.43C.49,116.93,1.4,118.63,0,119.93v-6c.61.32.73.89.77,1.5Z"/>
  <path class="cls-14" fill-rule="evenodd" d="M531.66,145.43c-7.4-.07-14.81-.07-22.2-.27-1.9-.05-4.06-.27-4.67-2.78-.24-27.85-.05-55.7-.11-83.55,0-1.87.03-3.73.14-5.59.54-1.81,2.12-2.06,3.58-2.09,16.82-.3,33.66-1.79,50.45.51,10.34,1.42,15.7,6.97,16.91,17.37.89,7.61-.05,15-4.04,21.67-1.76,2.95-1.47,5.13.61,7.74,8.13,10.19,8.47,21.49,4.01,33.18-2.82,7.37-8.64,11.48-16.27,12.82-5.15.9-10.38,1.35-15.64.97-4.25-.62-8.5-.65-12.75.02Z M537,89.4c-4.24,0-8.49-.1-12.73.04-2.45.08-3.29-.86-3.24-3.28.12-5.86.07-11.73.03-17.59-.02-2.08.65-3.36,2.95-3.39,8.98-.14,17.98-.84,26.91.59,6.33,1.01,8.9,5.08,8.38,12.75-.47,6.87-3.77,10.52-9.94,10.73-4.11.14-8.23.03-12.35.03v.14Z M538.24,104.15c4.49,0,8.98-.03,13.47,0,4.68.05,7.66,2.41,9.26,6.77,1.57,4.28,1.52,8.54.18,12.83-1.05,3.36-3.27,5.78-6.68,6.45-10.38,2.03-20.89.88-31.35.89-1.34,0-2.01-.89-2.02-2.21-.02-7.48-.03-14.97-.03-22.45,0-2.3,1.55-2.52,3.32-2.52,4.62.01,9.23,0,13.85,0,0,.07,0,.15,0,.22Z"/>
  <path class="cls-14" fill-rule="evenodd" d="M363.02,101.96c.16,8.73-1.37,17.17-4.78,25.19-3.97,9.34-10.99,15.3-20.91,17.68-11.73,2.81-23.54,2.97-35.29.36-11.66-2.59-19.19-9.86-22.3-21.35-4.43-16.39-4.43-32.85.28-49.19,4.23-14.7,14.22-22.7,29.3-24.52,11.26-1.36,22.43-1.38,33.35,2.3,7.27,2.45,12.5,7.14,15.49,14.24,3.33,7.91,5.2,16.12,4.86,24.76-.21,3.51-.2,7.03,0,10.54Z M346.48,97.71c-.13,6.75-.54,13.48-2.34,20.03-2.21,8.04-7.27,12.98-15.73,13.88-6.34.67-12.71.93-19.03-.37-6.54-1.34-11.26-5-13.12-11.44-4.19-14.52-4.21-29.08.75-43.46,2.02-5.87,6.38-9.45,12.35-10.96,7.78-1.96,15.63-1.81,23.39.04,6.41,1.53,9.66,6.26,11.4,12.24,1.91,6.54,2.18,13.28,2.33,20.03Z"/>
  <path class="cls-14" d="M725.13,71.24c13.66-.09,21.05,6.69,21.52,20.76.47,13.96.22,27.95.28,41.93.01,2.37-.09,4.75,0,7.11.13,2.99-1.14,4.43-4.19,4.32-2.12-.08-4.24.02-6.37-.02-4.62-.07-5.77-1.13-5.79-5.77-.07-11.11,0-22.22-.07-33.32-.03-4.61.19-9.24-.82-13.8-.75-3.39-2.69-5.59-6.11-6.3-8.33-1.74-16.66-.99-24.95.21-2.9.42-2.52,3.02-2.52,5.1-.03,14.6.03,29.2-.03,43.81-.04,11.16,1.34,10.02-9.93,10.08-1.12,0-2.26.06-3.37-.07-1.65-.19-2.9-.87-2.63-2.87.57-.92.35-1.94.35-2.92.01-30.78.01-61.56,0-92.34,0-.98.23-2-.35-2.92-.35-2.42,1.12-3.05,3.11-3.09,2.36-.04,4.72-.05,7.08-.04,5.56.01,5.73.16,5.74,5.57.02,7.46.15,14.92-.06,22.37-.1,3.38,1.06,3.93,4.15,3.4,4.26-.74,8.57-1.47,12.95-1.2,3.99.45,7.99.21,11.98,0Z"/>
  <path class="cls-14" fill-rule="evenodd" d="M661.43,109.44c.13,4.28-2.96,4.33-5.89,4.34-13.49.06-26.98.05-40.46.05-4.93,0-5.01.08-4.38,5.09.98,7.89,4.31,11.27,12.09,12.33,10.38,1.43,20.68.6,30.94-1.11,4.47-.74,6.21,1.13,4.71,5.44-1.65,4.75-4.66,8.21-9.92,9.15-4.42.78-8.81,1.76-13.35,1.46-2.76-.66-5.51-.67-8.27,0-5.82.25-11.47-.82-16.93-2.62-7.16-2.36-11.71-7.46-13.77-14.67-3.74-13.05-3.76-26.15.1-39.17,3.15-10.62,10.48-16.71,21.35-18.52,7.94-1.32,15.9-1.25,23.88-.1,9.43,1.36,15.5,6.48,18,15.64,1.35,4.94,2.18,9.99,1.9,15.16-.67,2.5-.68,5.01,0,7.51Z M611.22,100.83c-1.34-8.03,3.16-15,10.91-16.44,5.19-.97,10.47-1.06,15.63.28,6.22,1.61,9.77,11.08,6.31,16.48-3.18.86-6.42.34-9.63.38-6.61.09-13.22.07-19.83,0-1.12-.01-2.5.71-3.38-.69Z"/>
  <path class="cls-14" fill-rule="evenodd" d="M828.14,143.28c-2.64,1.8-5.76,1.38-8.67,1.69-13.18,1.4-26.39,2.03-39.54-.33-8.7-1.56-12.95-6.15-14.35-14.88-.93-5.78-.46-11.42.91-17.05,1.19-4.87,4.09-7.73,9.12-8.66,8.24-1.52,16.58-2.09,24.91-2.76,1.74-.14,3.66.26,5.2-.35,2.57-1.02,7.33,2.18,7.6-3.29.41-8.19-2.09-11.61-8.21-12.3-10.25-1.15-20.43-.46-30.6.94-5.42.75-6.75-.95-4.8-5.99,1.86-4.78,5.14-7.8,10.37-8.63,11.05-1.74,22.12-2.08,33.17-.23,10.59,1.77,15.28,8.04,15.36,20.01-.74,2.46.09,4.91.07,7.37-.12,13.09-.06,26.18-.05,39.27,0,1.75-.03,3.49-.48,5.19Z M800.4,132.99c-5.51-.11-9.36-.14-13.19-.86-3.76-.7-5.6-2.99-5.87-6.66-.12-1.61-.05-3.24-.05-4.85.01-3.11,1.53-4.8,4.66-5.23,8.17-1.13,16.37-1.51,24.61-1.61,1.9-.02,2.72.62,2.65,2.59-.15,4.11-.2,8.22-.21,12.32,0,2.11-.94,3.26-3.06,3.45-3.72.33-7.44.67-9.53.86Z"/>
  <path class="cls-14" d="M383.21,74.96c.34-2.04,2.1-1.96,3.48-2.11,13.89-1.5,27.77-3.25,41.78-1.67,2.59.29,5.2.69,7.71,1.39,8.23,2.32,12.56,7.99,12.96,16.64-.43,3.45.11,6.89.08,10.34-.1,14.79-.03,29.57-.05,44.36-2.43,1.8-12.19,2.14-14.15.42-1.69-1.49-1.54-3.57-1.54-5.57-.01-12.47,0-24.94-.02-37.41-.02-13.87-2.47-16.39-16.32-16.46-4.73-.02-9.47.33-14.2.44-1.61.04-2.91.51-3.86,1.83-.95,3.66-.65,7.33-.18,11.01.04,14.49.08,28.97.13,43.46,0,2.43-.97,3.76-3.55,3.71-3-.06-6,.03-9-.02-1.5-.03-3.11-.04-3.31-2.15.07-22.74-.01-45.48.05-68.22Z"/>
  <path class="cls-39" d="M144.38,25.93c6.57,22.97,20.86,37.69,43.9,43.9-9.93,4.99-20.38,8.17-28.17,16.19-7.73,7.96-11.29,18.09-15.96,28.41-6.25-23-20.65-37.83-43.96-44.28,23.18-6.52,37.69-20.99,44.19-44.23Z"/>
  <path class="cls-14" d="M855.62,144.66c-2.78-.17-3.82-2.1-4.24-4.44-.28-1.58-.26-3.23-.26-4.84-.01-29.42-.01-58.84,0-88.25,0-5.9.14-6.17,6.14-5.96,3.13.11,6.42-1.08,9.41.81.11,1.74.21,3.47.21,5.22-.01,30.64,0,61.29-.01,91.93,0,5.53-.01,5.51-5.64,5.55-1.87.01-3.73-.14-5.6-.01Z"/>
  <path class="cls-5" d="M38.22,191.18c-4.97-2.3-8.09-6.62-12-10.38,1.6-1.05,2.87-.66,4.05-.66,25.46-.04,50.91.11,76.37-.19,5.22-.06,8.6,1.33,10.56,6.14.51,1.25,1.32,2.38,2,3.57-1.16,2.22-3.27,1.45-5.01,1.45-23.57.05-47.15.03-70.72.04-1.75,0-3.49-.03-5.24.04Z"/>
  <path class="cls-2" d="M32.17,39.69c3.66-3.48,6.97-7.43,12.06-8.99,1.27.79,2.68.39,4.01.39,27.26.03,54.53,0,81.79.05,1.38,0,3.06-.69,4.04,1.05-1.79,3.3-3.51,6.65-6.61,8.99-30.35.09-60.69.02-91.04.02-1.55,0-3.35.44-4.26-1.51Z"/>
  <path class="cls-42" d="M77.97,157.46c7.43,2.94,14.94,5.45,23.11,5.33,2.74-.04,3.44,2.44,4.55,4.67-1.34.71-2.71.41-3.98.41-26.69.03-53.39-.07-80.08.13-4.23.03-6.9-1.13-8.39-5.07-.52-1.38-1.35-2.65-2.04-3.96.89-1.96,2.69-1.53,4.24-1.53,20.87,0,41.73-.08,62.6.03Z"/>
  <path class="cls-14" fill-rule="evenodd" d="M634.87,216.66c-2.81.11-4.3-1.05-4.94-3.2-.93-3.1-1.86-6.21-2.59-9.36-.75-3.24-2.7-4.66-5.92-4.37-4.24.39-8.48.31-12.72.08-2.69-.14-4.17.99-4.81,3.6-.77,3.15-1.7,6.26-2.67,9.35-.58,1.83-1.5,3.5-3.66,3.85-1.24.2-2.55.26-3.55-.7-1.11-1.06-.04-2.06.27-3.06,3.38-11.09,6.72-22.19,10.15-33.26,2.72-8.78,7.05-11.22,16.1-9.36,3.92.81,5.34,3.78,6.31,7.13,2.81,9.7,5.57,19.4,8.36,29.1.62,2.15,1.06,4.4,2,6.41,1.54,3.3-.44,3.6-2.33,3.78Z M615.7,194.16c-8.86-.06-9.73,1.59-6.43-8.81.6-1.9,1.22-3.79,1.89-5.67.85-2.39,2.55-3.59,5.12-3.51,2.47.07,3.9,1.43,4.58,3.68,1.04,3.46,2.02,6.93,3.06,10.39.83,2.73-.02,4.07-2.99,3.93-1.74-.08-3.49-.01-5.23-.01Z"/>
  <path class="cls-35" d="M184.41,170.13c-.73,1.15-1.54,2.26-2.17,3.46-3.08,5.83-7.74,7.24-14.29,6.96-14.47-.62-28.99-.44-43.47-.07-5.28.13-8.91-1.11-10.96-6.14-.7-1.71-1.81-3.26-2.73-4.88,1.14-.78,2.43-.41,3.64-.41,21.97-.03,43.94-.03,65.91,0,1.39,0,3.07-.67,4.06,1.06Z"/>
  <path class="cls-11" d="M127.24,155.83c3.99-3.02,7.84-5.55,10.89-9.06,1.38-1.58,3.47-1.91,5.51-1.91,16.72,0,33.44.05,50.16.02,2.38,0,3.07.53,2.16,3.04-3.12,8.53-3.03,8.57-11.9,8.56-17.59,0-35.19,0-52.78-.05-1.18,0-2.45.38-4.04-.6Z"/>
  <path class="cls-5" d="M29.97,87.8c7.62,0,15.23-.04,22.85.02,3.91.03,4.5.98,3.03,4.46q-2.8,6.65-10.07,6.65c-13.49,0-26.97-.1-40.46.07-3.34.04-4.53-.67-3.62-4.19,1.98-7.6-.21-7.04,8.78-7.02,6.49.02,12.99,0,19.48,0Z"/>
  <path class="cls-5" d="M57.49,203.2c22.4,0,44.61,0,66.81,0,1.67,0,3.25.29,4.5,1.47,1.11,1.04,2.19,2.31,2.14,3.81-.05,1.61-1.83,1.45-2.93,1.74-23.65,6.24-46.68,4.43-69.06-5.46-.54-.24-1.2-.35-1.47-1.55Z"/>
  <path class="cls-2" d="M46.49,64.48c-3.69-2.25-4.68-6.41-6.84-9.73,1.14-1.11,2.59-.76,3.92-.76,20.61-.03,41.23-.03,61.84,0,1.7,0,3.58-.38,4.74,1.46-7.12,3.88-14.02,8.29-22.4,9.06-.4-.33-.87-.44-1.38-.43-13.29.22-26.59-.48-39.88.4Z"/>
  <path class="cls-1" d="M802.71,193.55c-37.59,0-75.19,0-112.78,0-.75,0-1.5.02-2.25,0-.98-.03-2.15.15-2.07-1.41.07-1.29,1.1-1.11,1.94-1.14.87-.03,1.75,0,2.62,0,75.31,0,150.62,0,225.94.06,1.5,0,4.29-1.17,4.35,1.16.06,2.38-2.74,1.31-4.23,1.31-37.84.07-75.69.05-113.53.05v-.02Z"/>
  <path class="cls-2" d="M201.71,123.68q-.29,9.74-9.89,9.74c-13.69,0-27.38-.05-41.07.04-2.59.02-3.88-.36-2.45-3.22,1.19-2.4,1.11-5.34,3.14-7.39,15.2.21,30.39.02,45.59.11,1.58,0,3.26-.38,4.69.73Z"/>
  <path class="cls-5" d="M55.44,134.3c1.98,2.97,3.95,5.94,5.93,8.91-.99,1.74-2.68,1.03-4.06,1.03-15.5.05-30.99.02-46.49.05-1.35,0-2.75-.32-4.06.33-3.77-1.59-2.66-5.4-3.72-8.22.39-2.43,2.29-1.83,3.81-1.83,14.84-.02,29.68,0,44.51-.03,1.36,0,2.74.24,4.08-.24Z"/>
  <path class="cls-18" d="M157.45,108.68c1.59-3.28,2.58-6.95,6.02-9,1.91.83,3.91.38,5.86.37,10.53-.08,21.07.33,31.6-.21,1.38,1.25.75,2.86.78,4.35q-.28,5.61-6.3,5.61c-11.31,0-22.61.02-33.92-.02-1.4,0-3.06.6-4.03-1.1Z"/>
  <path class="cls-42" d="M39.77,65.15c2.56,0,2.84,2.39,3.91,3.86,1.35,1.86,2.39,3.95,3.57,5.94-3.82.78-7.69.29-11.54.34-7.99.09-15.98.03-23.97.03-1.48,0-3.13.32-3.44-1.85,1.2-2.9,1.87-6.09,4.47-8.22,9,.52,18.01.69,27.01-.09Z"/>
  <path class="cls-18" d="M161.49,193.51c-4.11,3.71-8.7,6.85-13.78,8.87-4.93,1.96-10.36.73-15.56.57-1.37-.04-1.84-1.91-2.53-3.06-1.27-2.13-2.47-4.31-3.7-6.48.74-1.41,2.08-1.12,3.28-1.13,9.55-.01,19.09-.01,28.64,0,1.34,0,2.79-.25,3.64,1.23Z"/>
  <path class="cls-34" d="M646.42,173.9c-.24-3.06,1.97-2.97,3.98-3.05,2.48-.09,2.73,1.6,2.73,3.5,0,12.8-.02,25.6.02,38.41,0,2.1-.84,3.35-2.94,3.52-1.94.16-3.89.16-3.79-2.66.8-2.3.33-4.67.35-7,.07-9.69.04-19.38.01-29.07,0-1.22.32-2.49-.35-3.65Z"/>
  <path class="cls-25" d="M561.63,191.21c.09.24.07.47-.06.69-1.81,1.27-3.88.72-5.83.72-85.48.03-170.96.03-256.44.03-1.87,0-3.75-.1-5.62.12-.47.14-.89.39-1.25.73-1.3-.41-.52-1.45-.67-2.21,1.1-.91,2.4-.47,3.61-.47,87.54-.02,175.08-.02,262.62,0,1.21,0,2.5-.38,3.64.41Z"/>
  <path class="cls-10" d="M561.63,191.21c-17.62-.02-35.23-.06-52.85-.06-70.84,0-141.68,0-212.53,0-1.5,0-2.99.08-4.49.12.85-1.39,2.24-.86,3.4-.86,87.67-.02,175.34-.02,263.02,0,1.17,0,2.54-.5,3.45.8Z"/>
  <path class="cls-13" d="M292.44,193.48c0-.28.01-.56.02-.84,1.3-.7,2.7-.35,4.04-.35,87.01-.02,174.02-.02,261.02,0,1.35,0,2.75-.35,4.04.35-.5,1.9-2.05,1.02-3.09,1.02-87.94.05-175.88.04-263.82.03-.74,0-1.48-.14-2.22-.21Z"/>
  <path class="cls-1" d="M561.57,192.64c-89.7,0-179.41,0-269.11,0,1.23-1.31,2.83-.73,4.25-.73,88.29-.03,176.57-.02,264.86-.02,0,.25,0,.5,0,.75Z"/>
  <path class="cls-11" d="M74.03,16.36c18.13-5.5,36.27-5.49,54.39.03-1,1.7-2.69,1.57-4.3,1.58-15.43.02-30.85.02-46.28,0-1.47,0-3.07.19-3.81-1.61Z"/>
  <path class="cls-26" d="M855.62,144.66c2.29-1.49,4.84-.65,7.24-.67,2.34-.02,3.31-.6,3.3-3.15-.16-32.62-.22-65.25-.32-97.87,0-.63.29-.87.82-.99,1.16,1.09.9,2.52.9,3.87.01,31.52.02,63.04,0,94.56,0,4.45-.46,4.92-4.96,4.91-2.34,0-4.75.47-6.99-.65Z"/>
  <path class="cls-35" d="M175.55,85.47c3.94-3.5,8.47-6.12,13.24-8.23,4.81-2.12,6.49-1.19,8.11,3.85.46,1.41.78,2.87,1.17,4.3-.56,1.44-1.81,1.52-3.08,1.52-5.44.03-10.89.03-16.33,0-1.25,0-2.53,0-3.11-1.45Z"/>
  <path class="cls-45" d="M38.22,191.18c1.21-1.34,2.81-.76,4.22-.76,24.01-.04,48.02-.03,72.04-.03,1.61,0,3.25.19,4.72-.74.67.65,1.35,1.43.05,1.97-.76.31-1.72.16-2.59.16-24.95,0-49.89,0-74.84,0-1.21,0-2.51.32-3.59-.59Z"/>
  <path class="cls-19" d="M110.15,55.44c-1.57-.34-3.09-.76-4.75-.76-21.92.06-43.83.05-65.75.06-.64-.61-.47-1.17.31-1.29,1.1-.16,2.23-.1,3.35-.1,21.78,0,43.56,0,65.34,0,1.19,0,2.38,0,3.66,0-.23,1.61-1.27,1.75-2.15,2.08Z"/>
  <path class="cls-41" d="M74.03,16.36c1.45.93,3.07.88,4.7.88,14.73-.01,29.46-.03,44.19.02,1.91,0,3.7-.36,5.5-.87,1.86.08,3.52.73,6.05,1.95h-65.81c1.6-1.61,3.53-1.69,5.37-1.99Z"/>
  <path class="cls-7" d="M77.97,157.46c-1.26,1.23-2.84.67-4.27.68-19.16.04-38.33.03-57.49.03-1.74,0-3.5-.19-5.08.8-1.39-2.12.06-2.19,1.58-2.19,3.24,0,6.48.01,9.71.01,16.94,0,33.87-.02,50.81-.01,1.6,0,3.26-.24,4.73.69Z"/>
  <path class="cls-21" d="M383.21,74.96c1.12.99.71,2.32.71,3.51.02,20.41.02,40.82,0,61.22,0,1.19.41,2.53-.76,3.48-.78-1.26-.48-2.67-.48-4.02-.02-19.94-.02-39.87,0-59.81,0-1.47-.27-3,.53-4.39Z"/>
  <path class="cls-32" d="M166.78,11.49c1.51,4.35,3.99,6.81,7.77,8.41-3.58,1.83-6.4,3.98-7.65,8.14-2.02-3.62-4.08-6.54-8.46-7.93,4.23-1.79,6.61-4.45,8.35-8.62Z"/>
  <path class="cls-32" d="M193.33,40.28c-4.09,1.93-6.6,4.21-8.13,8.27-1.82-3.77-3.88-6.47-7.97-8.06,3.9-1.85,6.36-4.33,7.69-8.29,2.01,3.42,3.7,6.69,8.41,8.08Z"/>
  <path class="cls-38" d="M190.78,15.63c-1.75-3.88-4.51-6.24-8.5-7.76,3.92-1.55,6.8-3.76,8.42-7.86,1.95,3.53,4.15,6.37,8.06,7.82-3.66,1.77-6.23,4.16-7.98,7.8Z"/>
  <path class="cls-9" d="M449.17,143.91c-1.04-.85-.73-2.04-.73-3.12-.02-16.15-.02-32.3,0-48.44,0-1.08-.31-2.27.7-3.14.75,3.18.69,6.43.69,9.66,0,13.58.02,27.15-.02,40.73,0,1.45.46,3.01-.64,4.31Z"/>
  <path class="cls-31" d="M828.14,143.28c-1.11-1.6-.2-3.34-.21-4.98-.1-14.32-.07-28.65-.04-42.97,0-1.31-.49-2.77.71-3.88,1.04,5.43.65,10.91.68,16.38.05,10.33.04,20.66,0,30.99,0,1.55.48,3.3-1.14,4.46Z"/>
  <path class="cls-19" d="M201.71,123.68c-15.35,0-30.71.02-46.06-.03-1.42,0-3.03.59-4.21-.81.81-.86,1.87-.54,2.83-.54,14.74-.02,29.48-.04,44.22.03,1.14,0,2.9-.85,3.23,1.35Z"/>
  <path class="cls-27" d="M680.17,44.22c1.19,1.12.7,2.58.7,3.89.03,30.14.03,60.27,0,90.41,0,1.31.49,2.77-.7,3.89-.07-20.53-.19-41.07-.21-61.6-.01-12.19.13-24.39.2-36.58Z"/>
  <path class="cls-20" d="M20.44,53.07c1.71-3.49,4.02-5.84,6.3-8.22,1.1-1.14,1.88-.35,2.26.62,1.01,2.56,3.93,4.19,3.58,7.36-.01.13-.91.23-1.39.23-3.43.02-6.86.01-10.75.01Z"/>
  <path class="cls-23" d="M134.08,32.19c-1.46-.99-3.12-.71-4.73-.71-26.96,0-53.92,0-80.88-.03-1.42,0-3.03.58-4.24-.75,1.86-.08,3.72-.24,5.57-.24,27.17-.02,54.33-.03,81.5.07.89,0,3.46-1.47,2.77,1.66Z"/>
  <path class="cls-8" d="M52.71,76.48h13.85c-2.73,3.29-5.2,6.28-7.88,9.51-1.94-3.08-3.76-5.99-5.97-9.51Z"/>
  <path class="cls-3" d="M184.41,170.13c-1.12-.67-2.34-.74-3.61-.74-23.34.04-46.67.05-70.01.07.31-2.09,1.95-1.03,2.89-1.04,22.1-.07,44.21-.05,66.31-.05,1.37,0,2.76-.1,4.12.06,1.63.19.99.99.29,1.69Z"/>
  <path class="cls-15" d="M6.77,144.62c1.13-1.18,2.59-.68,3.9-.69,15.33-.03,30.65-.02,45.98-.03,1.61,0,3.26.24,4.73-.7.31.34.98.7.45,1.15-.4.34-1.12.4-1.7.4-17.78-.03-35.57-.09-53.35-.14Z"/>
  <path class="cls-22" d="M157.45,108.68c1.46.91,3.09.76,4.7.76,11.42,0,22.85-.07,34.27.04,2.96.03,5.26-.14,4.62-4.03-.06-.37.43-.83.66-1.25.13.61.25,1.22.41,1.82.93,3.4-.21,4.48-3.84,4.42-12.96-.22-25.92-.06-38.88-.15-.73,0-3.26,1.24-1.95-1.61Z"/>
  <path class="cls-46" d="M55.44,134.3c-1.18,1.06-2.62.6-3.94.6-14.71.03-29.42.03-44.14,0-1.64,0-3.27-.13-4.32,1.49-.85-1.42-.75-2.39,1.19-2.43,1.75-.03,3.49-.02,5.24-.02,13.84,0,27.69-.01,41.53.01,1.48,0,2.96.22,4.44.33Z"/>
  <path class="cls-16" d="M909.61,141.67c-.68-.51-.75-1.24-.75-2.01,0-17.22,0-34.44,0-51.66,0-.34.13-.68.25-1,0-.03.4.09.61.13.13,18.18.35,36.36-.11,54.53Z"/>
  <path class="cls-13" d="M893.74,88.67c.18-.36.52-1.23.72-.76.37.84.15,1.94.15,2.94,0,15.79.02,31.58-.02,47.37,0,1.42.59,3.02-.78,4.21-.09-6.34-.25-12.68-.25-19.02,0-11.58.11-23.16.18-34.74Z"/>
  <path class="cls-40" d="M175.55,85.47c7.51,1.12,15.02,1.28,22.52-.07,1.1,1.48.35,2.06-1.11,2.07-7.69.03-15.38.02-23.12.02.07-1.41.96-1.64,1.71-2.01Z"/>
  <path class="cls-12" d="M46.49,64.48c.72-.95,1.76-.76,2.74-.76,11.93,0,23.87,0,35.8,0,.98,0,2.02-.18,2.73.79-13.75.4-27.51.51-41.26-.02Z"/>
  <path class="cls-17" d="M8.3,73.47c1.05,1.62,2.66,1.5,4.3,1.5,11.55-.02,23.1-.01,34.65-.01-.11,1.75-1.45.82-2.13.82-11.6.07-23.2.07-34.8.02-1.35,0-3.93.68-2.02-2.33Z"/>
  <path class="cls-22" d="M161.49,193.51c-1.12-.57-2.28-.89-3.57-.89-9.59.03-19.18.03-28.77,0-1.16,0-2.21.26-3.22.78-1.65-1.96.18-1.61,1.13-1.61,4.59-.04,9.18-.02,13.76-.02,7.4,0,14.79,0,22.75,0-1.05.87-1.57,1.3-2.09,1.74Z"/>
  <path class="cls-36" d="M646.42,173.9c.92.74.73,1.78.73,2.75,0,11.41,0,22.82,0,34.23,0,.97.2,2.01-.74,2.75-.31-13.24-.32-26.48,0-39.72Z"/>
  <path class="cls-6" d="M200.93,99.84c-.32.18-.65.51-.97.51-11.74.03-23.49.04-35.23.01-.42,0-.84-.45-1.26-.69,12.49-.36,24.98-.66,37.46.16Z"/>
  <path class="cls-29" d="M940.33,72.05c-.79.86-1.83.65-2.8.65-8.79.01-17.58,0-26.37-.86,9.31,0,18.62,0,27.93,0,.41.07.83.14,1.24.21Z"/>
  <path class="cls-33" d="M39.77,65.15c-.48.69-1.2.8-1.97.8-7.8,0-15.6.01-23.4-.03-.55,0-1.09-.44-1.64-.67,9-.49,18-.31,27.01-.09Z"/>
  <path class="cls-31" d="M933.07,84.8c-7.31,0-14.63,0-21.94,0,0-.3,0-.61.01-.91,7.73.55,15.49-.85,23.2.76l-1.27.15Z"/>
  <path class="cls-24" d="M363.02,101.96c-1.34-3.51-1.34-7.03,0-10.54.54,3.51.57,7.03,0,10.54Z"/>
  <path class="cls-21" d="M725.13,71.24c-3.99,1.16-7.99,1.17-11.98,0,3.99-.56,7.99-.65,11.98,0Z"/>
  <path class="cls-4" d="M531.66,145.43c4.25-1.25,8.5-1.2,12.75-.02-4.25.37-8.5.37-12.75.02Z"/>
  <path class="cls-24" d="M398.9,98.18c-1.35-3.68-.64-7.45-.44-11.19,0-.02.22-.06.32-.03.11.04.2.14.3.21-.06,3.67-.12,7.34-.18,11.01Z"/>
  <path class="cls-28" d="M626.89,146.2c2.76-1.27,5.51-1.27,8.27,0-2.76.46-5.51.48-8.27,0Z"/>
  <path class="cls-4" d="M661.43,109.44c-1.23-2.5-1.21-5.01,0-7.51.41,2.5.49,5.01,0,7.51Z"/>
  <path class="cls-30" d="M522.86,89.95c8.72,0,17.44,0,26.16,0,.46,0,.93.14,1.36.56h-27.55c.01-.19.02-.38.03-.57Z"/>
  <path class="cls-37" d="M523.49,132.1h24.55c0,.12,0,.23,0,.35h-24.55c0-.12,0-.23,0-.35Z"/>
  <path class="cls-16" d="M520.2,105.76v22.93c-.09,0-.18,0-.27,0v-22.93c.09,0,.18,0,.27,0Z"/>
  <path class="cls-16" d="M519.86,87.66v-20.01c.1,0,.2,0,.3,0v20.01c-.1,0-.2,0-.3,0Z"/>
  <path class="cls-27" d="M611.22,100.83c10.95.1,21.89.21,32.84.31.38,1.18-.58.78-1.02.78-9.78.02-19.56.02-29.35,0-.98,0-2.04.13-2.48-1.1Z"/>
</svg>